<svg width="512" height="512" viewBox="0 0 512 512" fill="none" xmlns="http://www.w3.org/2000/svg">
<rect x="135" y="106" width="263" height="333" fill="white"/>
<path fill-rule="evenodd" clip-rule="evenodd" d="M257.1 17C123.9 16.3 16.3 123.3 16 256.3C15.7 390.1 123.1 496.2 253.9 497C390.2 497.8 495.7 388.6 496 257.3C495.9 124.8 389.5 17.6 257.1 17ZM406.6 438.4C406.6 438.8 406.5 439.3 406.2 439.5L399.6 444.5C398.9 445.1 398.5 445.7 397.4 445.7C370.8 465.6 341.1 479.4 308.7 486.9C293.2 490.5 277.4 492.6 261.6 492.8C248.2 492.9 234.8 492.2 221.5 490.3C196.8 486.7 173.4 479.3 151 468.5C139 462.6 127.7 455.7 116.8 447.9C116.2 447.5 115.7 447 115.6 446.9C115.6 445.5 115.8 444.3 115.6 443.2C115.4 442.1 114.7 441.1 114.3 439.9C117.2 442.7 119.7 445.2 122.4 447.7C123.2 448.4 124.4 448.9 125.3 448.7C125.9 448.6 126.4 447.1 126.4 446.2C126.8 440.1 127.1 433.9 127.3 428C127.6 428.7 128.2 429.9 128.6 431C129 432.3 129.5 433.6 129.9 434.9C130.3 436.2 130.7 437.6 131 439C131.3 440.4 132.3 441.2 133.8 441.2C135.3 441.3 135.8 440.1 136 439C137.4 432.1 137.7 425.1 137.1 418C136.9 415.7 136.7 413.3 136.8 410.9C138.1 413.6 139.1 416.5 140.8 419C144.4 424.6 146.2 431.3 151.8 435.6C159.6 441.7 170.7 442.7 179.5 437.6C188.1 432.7 192.9 422.6 191.4 412.9C191.2 411.2 191.4 409.6 191.8 407.8C192.7 409.9 193.5 412.1 194.6 414.2C196.6 417.9 198.6 421.6 200.7 425.1C201.4 426.2 202.4 427 203.1 427.9C203.7 428.6 204.3 429.2 204.4 429.9C204.7 431.8 205.7 432.1 207.5 432C216.9 431.1 226.3 430 235.7 429.4C246 428.7 256.3 428.5 266.5 428.1C285.2 427.2 303.8 428.3 322.4 429.4C325.2 429.6 327.8 429.6 330.5 429.7C332.2 429.8 332.8 428.8 333.3 427.5C335.9 420.5 337.6 413.3 338.1 405.9C338.1 405.5 338.2 405 338.3 404.6C340.1 410.3 340.8 416.3 340.9 422.2C340.9 424.2 340.9 426.3 340.8 428.3C340.7 429.9 340.8 431.3 342.6 431.8C344.6 432.2 344.9 430.6 345.5 429.2C347.2 425.5 348.9 421.7 350.6 417.9C350.8 418 351.2 418 351.4 418.1C350.7 421.9 350.1 425.6 349.3 429.2C349.1 430.6 348.7 432 349.7 433.2C350.1 433.8 350.8 434.6 351.2 434.5C351.9 434.4 352.9 433.8 353.2 433.2C354.9 429.4 356.4 425.5 357.7 421.6C358.6 418.7 359 415.8 360 412.8C360.3 414.9 360.8 417 361 419.3C361.3 422.4 361.4 425.5 361.4 428.7C361.4 430.4 361 431.9 360.5 433.5C360.1 434.9 360.2 436.1 361.6 436.5C363 436.9 363.6 435.9 364 434.7C367.1 425.9 371.7 417.9 377.8 410.7C378.1 410.3 378.5 409.9 379.1 409.3C378.4 413.2 377.6 416.7 377.2 420.2C376.8 424.8 376.8 429.3 376.6 434C376.6 434.8 376.7 435.6 377 436.2C377.9 438.3 379.5 438.7 381 437C383.4 434 385.6 430.9 387.9 427.9C388.5 427.1 388.9 426.2 389.7 425.1C390.4 427.1 390.7 428.7 391.4 430.2C392.9 434.2 394.7 438.2 396.4 442.2C397.1 443.5 398.1 444.3 399.6 444.2C399.9 443.3 400.4 442.3 400.8 441.2C402.6 437.1 404.3 433 406.1 428.8C406.3 428.9 406.4 428.9 406.7 429V438.4H406.6ZM168.1 405.5C167.8 406.3 167 406.9 166.2 407.3C164.8 407.9 163.2 408.1 161.8 408.7C159.6 409.8 158.2 408.5 156.7 407.4C156.4 407.2 156.3 406.6 156.3 406.5C156.9 403.8 157.2 401.5 157.5 399.1C157.9 397.2 162 395.8 163.6 397.1C164.7 398 165.7 399 166.8 400C169.5 402.4 169.5 402.4 168.1 405.5ZM167.6 432C166.1 433.2 164.7 434.7 163.3 436C162.9 436.4 162.3 436.8 162.1 436.9C160 437 158.1 435.6 157.7 433.9C157.1 431.8 156.7 429.7 156.3 427.5C156 425.5 158.6 422.7 160.6 423.3C162.6 423.9 164.7 424.4 166.4 425.4C167.4 426 167.7 427.6 168.4 428.7C169.1 430.1 168.8 431 167.6 432ZM157.2 412.2C158 413.1 157.9 414.8 158.2 416.1C158.4 418.9 157.3 420.8 154.9 421.9C154.2 422.2 153.1 422.2 152.5 421.9C150.7 421 149.1 419.7 147.4 418.6C146.2 417.8 146.1 414.9 147.4 414.1C148.6 413.2 150 412.4 151.4 411.6C154.3 409.8 154.8 409.7 157.2 412.2ZM175 420.2C176.1 418.8 177.2 417.7 179.1 418.4C181.4 417.6 182.3 419 182.7 421C183.1 422.9 183.9 424.7 184.6 426.6C185.4 428.7 184.2 430.5 182 430.3C179.4 430.1 176.7 429.6 174.1 429.4C172.9 429.3 172.2 428.7 171.9 427.5C171.6 426.3 170.6 425.2 171.9 423.9C173 422.8 174 421.5 175 420.2ZM171.9 406.2C172.1 404.2 173.2 403.4 175.3 403.5C176.6 403.6 178.1 403.3 179.5 403.2C181.2 403.5 183.2 402.4 184.3 404.6C184.7 405.3 184.9 406.3 184.6 406.9C183.9 408.7 183.2 410.5 182.2 412.2C181.6 413.1 180.9 414.4 180.1 414.5C178.4 414.8 176.6 414.9 175.5 412.9C174.6 411.2 173.2 409.8 172.2 408.2C171.9 407.7 171.8 406.8 171.9 406.2ZM250.2 325C251.9 314.9 253.5 305.1 255.2 295.1C258.6 296.1 261.7 297 265 297.9V325H250.2ZM264.9 328.9V332.8C263.7 331.5 262.6 330.2 261.3 328.9H264.9ZM244.6 277.1C243.7 273.5 243.8 269.5 244.3 265.8C244.9 261.8 246.3 258 247.1 254.1C248.1 249.1 249 244.2 250 239.3C251.1 234 252.3 228.6 253.5 223.1C261.4 226 269 225.8 276.7 222.9C278.2 227.4 279.7 231.8 281.1 236.2C284.1 245.2 286.7 254.4 290 263.3C293.5 272.9 289.1 286 278.2 291.5C264.8 298.3 248.2 291.3 244.6 277.1ZM206.2 245.6C206.1 245.5 205.9 245.5 205.8 245.5C204.9 242.7 203.8 239.9 202.9 237.1C202.8 236.7 203.1 235.8 203.5 235.7C206.3 234.3 209.2 233.1 212.2 232C208.9 236 206.7 240.3 206.2 245.6ZM223.9 230.4C223.6 232.5 223.5 234.5 223.1 236.6C223.1 237 223 237.5 222.7 237.7C219.3 240.8 215.4 242.8 210.7 243C211.2 237.1 218.6 230.2 223.9 230.4ZM223.4 241.9C224 243.3 224.4 244.6 224.7 245.9C224.8 246.5 224.6 247.2 224.1 247.6C220.7 250.7 216.7 252.2 212.1 252.4C211 252.4 210.4 252 210.3 251C210.1 249.7 210 248.4 209.7 246.9C215 246.6 219.4 244.8 223.4 241.9ZM223 252.9C223.8 252.6 224.7 252.1 225.2 251.5C227.5 248.8 230 249.9 232.9 251.2C229.7 256.9 225.4 260.7 219.2 261.7C218.6 261.8 218 261.8 217.7 261.5C215.9 259.9 214.2 258.3 212.6 256.8C216.3 255.4 219.7 254.3 223 252.9ZM322.3 243.3C323.1 247 322.4 250.2 320.9 253.7C319.6 251.9 318.4 250.5 317.2 248.9C318.9 247 320.4 245.4 322.3 243.3ZM321.6 233.4C321.7 233.3 321.8 233.1 321.9 233C324.4 234.2 326.9 235.5 329.3 236.9C329.5 237 329.9 237.7 329.7 238C328.7 240.9 327.7 243.8 326.4 246.7C326 241.8 324.6 237.3 321.6 233.4ZM316.7 267.3C315.8 271.1 307.9 273.8 304.4 271.5C306.1 267.8 313.1 265.4 316.7 267.3ZM304.1 263.1V255.2C305.1 254.9 306.2 254.4 307.6 254C308.7 256.8 309.8 259.5 311.1 262.5C308.6 262.6 306.5 262.9 304.1 263.1ZM314.3 260.8C313.1 257.8 312 255.2 310.9 252.4C311.9 252 312.9 251.4 313.9 250.8C315.6 252.8 317.1 254.7 318.9 256.9C317.3 258.3 316 259.5 314.3 260.8ZM320 239.1C319.2 241.7 317.5 243.6 315.3 245.5C313 240.7 311.7 236 311.9 230.6C315.5 231.9 318.3 234.3 320.2 237.4C320.3 237.8 320.1 238.6 320 239.1ZM312.3 247.7C311.4 248.1 310.6 248.6 309.7 249.1C307.1 242.6 304.5 236.4 301.8 229.8C304 229.7 306 229.5 308.1 229.4C308 236.1 309.5 242 312.3 247.7ZM306 249.8C306 250 306 250.2 306.1 250.7C305.1 251 304.3 251.4 303.2 251.7C301.4 245.3 298.7 239.8 294.1 234.5C295.4 233.4 296.7 232.4 298.3 231.2C300.9 237.7 303.4 243.7 306 249.8ZM300.5 256.1V262C297.4 261 295.1 259.2 292.9 256.7C295.6 256.4 297.8 256.3 300.5 256.1ZM291 253C288.4 248.7 288.7 241.5 292 237.4C295.7 241.7 298.2 246.6 299.7 252.4C296.6 252.7 293.8 252.9 291 253ZM286.3 240.3C284.3 234.4 282.7 229.3 280.9 223.7C287.7 223.8 294.1 224.8 301 226.4C293.7 228.6 288.9 233.1 286.3 240.3ZM234.4 231.3C234 234.1 233.2 236.6 233 239.2C232.8 241.8 233 244.3 233 247.1C233.1 247.2 232.8 247 232.2 247.1C228.7 247 227.2 244.5 227.1 241.5C227 238.2 227.3 234.7 227.4 231.4C227.5 230.1 228.5 229.6 229.6 230C231.2 230.3 232.9 230.9 234.4 231.3ZM232.3 226.5V226C237.9 225.3 243.4 224.7 249.5 223.9C248.4 228.9 247.5 233.4 246.5 238.3C243.2 232.2 238.8 228.1 232.3 226.5ZM218 268.4C222.1 267.6 225.8 268.3 229 271C229.8 271.7 230.4 272.6 228.8 273.2C225.8 274.5 219.1 272.9 217.2 270.2C217.1 270 217 269.6 216.8 269.2C217.2 269 217.6 268.5 218 268.4ZM224.2 264.1C229.7 261.5 233.3 257.9 236.2 252.6C237.6 254.4 238.8 255.7 239.8 257.3C240 257.7 239.7 259.1 239.2 259.5C235.9 263.3 230.3 265 224.2 264.1ZM236.5 241.6C236.5 239 237.2 236.5 237.5 233.5C244.2 238 245.8 244.6 242.9 254.2C238.4 251.1 236.4 246.8 236.5 241.6ZM235.2 191.1C235.5 175.1 248.9 162.1 264.8 162.3C279.2 162 294.2 173.4 294.4 191.8C294.6 208.2 280.9 221.3 264.3 221.3C248.5 221.3 234.9 208 235.2 191.1ZM268.8 325V298C271.8 297.3 274.7 296.7 277.9 295.9C279.6 305.5 281.2 315.2 282.9 325H268.8ZM272 328.9C271 330 270 331 268.8 332.4V328.9H272ZM272.4 354.2H268.8V350.3C270.1 351.7 271.2 352.9 272.4 354.2ZM268.8 396.1C271.7 397.3 273.2 399.4 274.5 402C272.6 403.6 270.9 405.1 268.8 406.8V396.1ZM269.7 419.1H297.7C299.9 419.1 301.6 418.8 302.4 416.1C302.8 414.8 304.7 413.4 306.3 412.9C313 410.3 319.8 410.4 326.6 413.2C331.2 415.1 332.3 422.2 328.7 425.7C328.1 426.1 327.3 426.1 326.6 426.1C318.9 425.7 311.3 425 303.6 424.8C292.8 424.6 282.1 424.6 271.3 424.6H269.6C269.5 422.7 269.5 421.1 269.7 419.1ZM311.6 407.7C308.4 408 305.3 409.4 302.4 410.6C301.2 411 300.1 412.3 299.4 413.5C298.6 415.1 297.6 415.4 296.1 415.4H269.8C269.5 411.8 271.1 409.6 273.4 407.4C279 402.8 285.7 400.8 292.8 400C302.3 399 311.3 400.2 319.8 404.7C321.6 405.6 323.2 406.8 324.6 407.8C320.2 407.7 315.9 407.3 311.6 407.7ZM279.6 399.7C279.2 399.8 278.1 399.5 277.7 399C275.6 395.7 275.8 390.6 278.1 387.4C279.5 385.3 281.7 384.6 283.9 384.5C286.7 384.3 289.3 384.6 292 384.8C292.4 384.9 293 385.4 293.3 385.7C295.9 388.6 296.8 392.2 296.7 396.2C290.8 396.4 285.2 397.5 279.6 399.7ZM292 380.8H290C286.8 381 283.5 380.9 280.3 381.5C278.9 381.8 277.4 383.2 276.3 384.3C273.8 386.9 272.8 390.1 272.7 394C271.3 393.6 270.1 393 268.7 392.6V358.3H286.6C287.7 358.3 288.4 358.5 288.6 359.7L291.9 379.8C292.1 380 292 380.3 292 380.8ZM288.9 354.5C287.6 354.6 286.3 354.4 285 354.4C286.7 351.9 288.3 349.6 290 347.3C290.3 348.7 290.8 350.3 291 352C291.1 353.3 290.3 354.3 288.9 354.5ZM284.2 349.6C281.2 353.2 276.6 353.4 273.3 350C269.1 345.8 268.8 338 272.7 333.4C275.5 330.3 280 329.9 283 332.8C285.6 335.3 286.7 338.4 286.7 343.3C286.8 344.8 286.1 347.3 284.2 349.6ZM281.3 295.1C281.3 294.5 281.9 293.5 282.4 293.2C290.9 287.3 295.1 279 294.7 268.8C294.7 266.8 294.1 264.8 293.9 263.1C296.8 264.3 299.8 265.4 303 266.8C302.8 267 302.4 267.5 302.1 267.9C300.9 269.3 300 270.9 300.8 272.9C301.6 274.8 303.2 275.7 305.1 275.9C310.2 276.6 314.7 275 318.4 271.6C319.1 271 319.7 270.4 319.8 269.6C320.7 265.1 324 261.7 325.6 257.6C328.2 251.1 330.9 244.8 333.4 238.3C334.3 236 334 235.4 331.7 234.1C325.2 230.3 318.4 227.5 311.2 225.4C302.3 222.7 293.3 220.9 284 220.2C283.7 220.2 283.3 220.1 282.9 220.1C303.3 205.7 300.5 180.2 287.9 168.2C274.5 155.2 253.6 155.5 240.5 168.6C228.2 181.1 226.2 207 246.9 220.5C242.7 221.1 238.6 221.5 234.6 222.2C223.3 224.1 212.5 227.3 202.1 232.2C198 234.1 198 234.1 199.3 238.4C202.4 248.4 206.6 258 212 267C212.3 267.6 212.8 268.2 212.8 268.8C212.7 271.1 214 272.7 215.7 273.9C219.6 276.8 224.1 278 228.8 276.9C233.5 275.9 234.6 272.3 231.6 268.7C231.5 268.4 231.3 268.1 231.2 268C234.5 266.4 237.6 265 240.7 263.5C240.5 265.7 240.3 268.3 240.1 270.9C239.8 279.1 243.4 285.7 249.3 291C251.1 292.6 251.7 293.8 251.2 296.1C250.3 299.7 250 303.3 249.3 307.1C248.7 306.8 248.2 306.7 247.8 306.4C231 297.6 216.8 285.3 204.4 271C188.1 252.2 176.1 230.9 168.3 207.1C164.9 196.7 162.6 186.1 161.6 175.3C160.2 159.6 161.5 144.2 168.6 129.8C175.6 115.6 187.1 106.8 202.9 104.6C216.2 102.7 228.8 105.9 240.9 111.3C248.9 114.9 256.3 119.7 263.6 124.6C264.7 125.3 265.7 126.6 266.7 126.6C267.6 126.6 268.5 125 269.5 124.4C282.8 115.3 296.7 107.5 313 105C325.7 103.1 337.8 104.6 348.7 111.9C357.6 117.9 363.5 126.5 367 136.5C371.2 148.2 372.3 160.2 371.3 172.5C368.3 209.5 353 241 329.9 269.3C319.3 282.1 307 293.3 292.7 302.1C289.7 303.9 286.6 305.6 283.5 307.3C282.6 303.1 281.9 299.1 281.3 295.1ZM249.7 333.1C252.9 329.8 257.7 330 260.6 333.5C264.2 338 264.1 345.3 260.3 349.5C256.8 353.5 251.2 353.1 248.4 348.5C247.2 346.5 246.7 344.2 246 341.9C246.5 338.5 247.5 335.5 249.7 333.1ZM264.8 349.8V354.1H260.8C262.3 352.6 263.4 351.3 264.8 349.8ZM245.7 331.9C245.6 327.9 246.5 327.9 248.6 328.9C247.6 329.9 246.5 330.9 245.7 331.9ZM248.3 354.3C246.8 354.3 245.3 354.4 243.9 354.2C243.5 354.1 242.8 353.1 242.8 352.5C242.8 350.9 243.2 349.3 243.5 347.7C245.1 349.9 246.5 352 248.3 354.3ZM244.3 360C244.5 358.8 245 358 246.3 358H265V392.3C263.6 392.7 262.1 393.3 260.7 393.9C260.7 390.4 259.5 387.4 257.5 384.7C255.2 381.6 252 381 248.7 380.8C246.8 380.7 245.1 380.8 243.2 380.8H240.8C241.5 376.9 242 373.3 242.8 369.8C243.2 366.5 243.9 363.3 244.3 360ZM264.9 396V406.6C262.8 404.9 260.9 403.5 258.8 401.9C260.1 399.3 261.8 397.3 264.9 396ZM242.5 384.7C244.7 384.6 247.1 384.3 249.3 384.6C255.5 385.6 258.5 391.4 256.2 397.3C255.9 398.2 255.3 399.1 255.1 399.5C248.7 398.1 242.8 396.6 236.4 395.2C236.2 391.9 237.3 388.5 239.9 385.7C240.5 385 241.6 384.8 242.5 384.7ZM254.5 404.4C257.1 405.6 259.3 407.7 261.8 409.5C263.7 410.8 264.2 413 264.2 415.4C263.5 415.4 263 415.5 262.4 415.5H236.5C235.9 415.5 234.8 415.3 234.6 414.8C232.3 410.5 228.2 409.1 223.9 408.1C218.6 406.9 213.3 407.2 208 408.8C207.8 408.8 207.3 408.8 206.7 408.9C210 405.4 213.7 403.3 217.7 402.2C230.3 398.1 242.6 398.7 254.5 404.4ZM219.1 411.2C222.3 411.5 225.5 412.5 228.5 413.7C229.8 414.1 230.8 415.7 231.4 417C232.2 419 233.7 419.1 235.4 419.1H265C265.1 421 265.1 422.7 265.1 424.4C262.6 424.4 260.1 424.3 257.7 424.4C248.6 424.8 239.4 425.2 230.4 425.7C223.4 426.1 216.4 427 209.4 427.7C208.8 427.7 208.1 427.6 207.6 427.3C205.1 425 203.4 422.1 203 418.5C202.8 416.5 203.4 414.9 205.3 413.9C209.7 411.5 214.4 410.7 219.1 411.2ZM460.3 376.7C449.7 394.9 436.9 411.2 421.8 426C417.3 428 415.5 433.4 410.9 435.7C410.9 435.1 410.8 434.6 410.8 434C411.2 429.5 411.7 425.1 412.2 420.6C412.4 419.3 412.8 417.8 411.1 417.4C409.4 416.8 409 418.3 408.7 419.6C408.6 420.2 408.3 420.7 407.9 421.3C405 426.6 402.1 431.9 399.2 437.2C399.2 437.4 399 437.5 398.8 437.9C396.5 433 394.8 428 393.7 422.9C393.5 422 393.4 421.1 393 420.3C392.7 419.6 392 418.7 391.3 418.6C390.6 418.6 389.6 419.3 389.2 419.9C388.1 421.6 387.3 423.5 386.2 425.2C384.7 427.5 383 429.9 381.5 432.2C381.4 432.2 381.2 432.1 381.1 432.1C381.1 430 381 427.9 381.1 425.7C381.5 418.5 383 411.4 385.5 404.6C385.8 403.8 385.3 402.7 385.1 401.7C384.1 402 382.9 401.9 382.2 402.5C376 407.7 371.3 414.2 367.2 421.2C366.9 421.9 366.5 422.4 365.9 423.5C365.5 420 365.2 417.3 364.7 414.5C364 411.2 363.2 407.9 362.4 404.6C362.2 403.4 361.6 401.9 360.1 402.3C358.6 402.5 357.6 403.6 357.5 405.4C357.3 408.3 356.9 411.2 356.6 414.1C356.5 414.8 356.3 415.4 356 416.2C356 414.6 356.2 413.2 356 411.7C355.8 410.8 355.3 409.5 354.7 409.2C354 409 352.7 409.6 352.3 410.3C350 413.8 347.9 417.3 345.6 421.1C345.3 418.2 344.9 415.4 344.6 412.7C343.8 406.8 342.5 401.1 339.6 395.8C338.5 393.9 337.2 392.2 335.7 390.7C335.4 390.4 333.8 390.1 333.6 390.5C333 391.2 332.7 392.3 333 393C336 399.7 335.1 406.5 334 413.7C326.6 400.8 314.4 397.5 301.1 396.1C301.1 391.5 299.4 387.5 297.1 383.5C295.8 381.2 295.8 377.9 295.3 375.1C294.3 369.6 293.4 364.1 292.5 358.6C292.4 357.9 292.7 356.9 293.2 356.4C294.9 354.6 295.1 352.7 294.6 350.4C293.3 343.5 292.1 336.5 291 329.6C290.7 327.8 289.6 326.8 288.1 325.9C287.3 325.5 286.6 324.5 286.4 323.7C285.7 320.2 285.2 316.7 284.5 313.1C284.3 311.9 284.6 311.3 285.7 310.8C306.6 300.1 323.5 284.6 337.8 266.1C351.5 248.4 361.9 229 368.6 207.6C371.9 197.1 374.2 186.4 375.1 175.5C376.2 162.9 375.7 150.5 371.8 138.5C367.3 124.2 359.4 112.8 345.8 105.8C336.2 101 326 99.8 315.4 101C297.6 103.1 282.2 110.8 268 121.3C266.6 122.3 265.9 121.9 264.8 121.1C252.7 112.2 239.7 105.5 224.9 102.3C211.6 99.4 198.6 99.8 186.4 106.3C173.7 113 166 124 161.6 137.4C157.6 149.2 156.6 161.5 157.7 173.8C160.8 210.1 175.6 241.4 198 269.5C210.8 285.5 225.9 299 244 309C245.4 309.8 247.4 310.2 248.1 311.5C248.8 312.6 247.9 314.6 247.7 316.2C247.4 318.2 247 320.2 246.7 322.2C246.5 323.8 246 325.1 244.2 325.5C242.5 325.9 242 327.5 241.8 329.2C241.1 334.3 240.5 339.6 239.8 344.7C239.5 346.9 238.7 349.3 238.7 351.5C238.7 353.1 239.6 354.7 240 356.4C240.2 357.2 240.7 358 240.6 358.6C239.4 366.4 238 374.3 236.6 382.1C236.5 382.7 236.4 383.3 236 384C235 385.8 233.9 387.6 233.2 389.5C232.5 391.3 232.4 393.3 232.1 395.2C228.4 395.8 224.4 396.1 221.4 396.9C214.8 398.6 208.5 401 204.1 406.6C202.2 409.1 200.9 411.9 199.4 414.6C199.4 414.6 199.1 414.3 199 413.9C197.6 410 195.9 406.1 194.6 402.1C194 400.7 194.5 398.9 194.2 397.3C194 396.4 193.4 395.5 193 394.6C192.2 395.2 191.1 395.6 190.8 396.4C189.9 398.6 189.4 401.1 188.7 403.5C182.2 394.3 173.2 390.1 162.2 392.5C151.2 394.8 145.1 402.6 143 414C142.1 412.4 141.6 411.1 140.8 410C138.9 407.1 136.9 404.2 135.1 401.3C134.3 400.1 133.2 399 131.6 399.9C130.1 400.8 130.7 402.1 131.2 403.4C134.2 412.3 134.7 421.5 134.2 430.8C134.1 431.4 134 431.9 133.8 432.9C133.2 431.2 132.7 430 132.3 428.9C131.7 427.7 131.3 426.3 130.6 425.2C129.1 422.6 127.4 420.2 126 417.6C125.4 416.7 125.3 415.6 125 414.6C124.6 413.4 124 412.3 122.6 412.7C121.3 413.1 121.3 414.3 121.6 415.6C123.8 423.7 124.5 432.1 124.1 440.5C124.1 441.5 123.9 442.5 123.8 443.8C119.5 439.7 116 435.4 112.9 430.8C112.7 430.5 112.6 429.9 112.2 429.8C111.5 429.5 110.4 428.8 110 429.1C109.4 429.4 108.9 430.7 109 431.3C109.4 434 110.3 436.6 111 439.3C110.9 439.4 110.7 439.5 110.6 439.6C107.7 437 104.9 434.7 102.2 431.9C99.4 429 96.9 425.9 94.4 422.8C93.5 421.7 92.9 420.5 91.3 421.2C89.8 422 90.4 423.3 90.9 424.5C91 424.6 91 424.8 91.1 425.4C88.6 422.9 86.1 420.7 83.9 418.4C62.9 396 46.8 370.4 35.8 341.7C28.8 323.4 24.1 304.6 21.8 285.2C19.9 269.7 19.5 254.1 20.7 238.5C23.5 204.2 33.1 171.9 49.9 141.8C64.9 114.8 84.6 91.6 108.7 72.3C132.7 53.1 159.6 39.1 189.1 30.3C204.3 25.7 219.8 22.8 235.7 21.4C248.5 20.3 261.4 20.2 274.2 21.2C300.1 23.1 325 29.1 348.7 39.3C386.2 55.2 417.6 79.4 442.7 111.5C463.2 137.7 477.4 167 485.5 199.2C491.2 221.9 493.5 245 492.3 268.4C490.6 307.2 479.8 343.3 460.3 376.7Z" fill="black"/>
<path fill-rule="evenodd" clip-rule="evenodd" d="M406.6 429.3V438.3C406.6 438.7 406.5 439.2 406.2 439.4L399.6 444.4C399.9 443.5 400.4 442.5 400.8 441.4C402.6 437.3 404.3 433.2 406.1 429C406.3 429.2 406.4 429.2 406.6 429.3Z" fill="#098407"/>
<path fill-rule="evenodd" clip-rule="evenodd" d="M396.4 442.5C394.7 438.5 393 434.5 391.4 430.5C390.7 428.9 390.4 427.4 389.7 425.4C388.9 426.5 388.5 427.4 387.9 428.2C385.6 431.2 383.4 434.3 381 437.3C379.6 439 377.9 438.6 377 436.5C376.7 435.8 376.6 435.1 376.6 434.3C376.7 429.6 376.7 425.1 377.2 420.5C377.5 416.9 378.4 413.5 379.1 409.6C378.4 410.3 378.1 410.6 377.8 411C371.7 418.1 367.1 426.2 364 435C363.6 436.2 363 437.2 361.6 436.8C360.2 436.4 360.1 435.2 360.5 433.8C360.9 432.2 361.4 430.7 361.4 429C361.4 425.9 361.3 422.8 361 419.6C360.8 417.4 360.3 415.3 360 413.1C359 416.1 358.6 419 357.7 421.9C356.4 425.8 354.8 429.7 353.2 433.5C352.9 434.2 351.9 434.7 351.2 434.8C350.8 434.9 350.1 434 349.7 433.5C348.7 432.3 349 430.9 349.3 429.5C350.1 425.8 350.7 422.1 351.4 418.4C351.2 418.3 350.8 418.3 350.6 418.2C348.9 422 347.2 425.8 345.5 429.5C344.9 430.8 344.6 432.5 342.6 432.1C340.8 431.7 340.7 430.2 340.8 428.6C340.9 426.6 340.9 424.5 340.9 422.5C340.8 416.6 340 410.6 338.3 404.9C338.2 405.3 338.1 405.8 338.1 406.2C337.5 413.7 335.9 420.8 333.3 427.8C332.9 429.1 332.2 430.1 330.5 430C327.7 429.9 325.1 429.9 322.4 429.7C303.8 428.6 285.2 427.5 266.5 428.4C256.3 428.8 246 429.1 235.7 429.7C226.3 430.3 216.9 431.4 207.5 432.3C205.7 432.4 204.7 432.1 204.4 430.2C204.3 429.5 203.6 428.9 203.1 428.2C202.3 427.3 201.3 426.5 200.7 425.4C198.6 421.8 196.6 418.2 194.6 414.5C193.5 412.5 192.7 410.3 191.8 408.1C191.4 409.9 191.1 411.6 191.4 413.2C192.9 422.9 188.1 433 179.5 437.9C170.7 443 159.6 442 151.8 435.9C146.2 431.6 144.4 424.9 140.8 419.3C139.1 416.7 138.2 413.8 136.8 411.2C136.7 413.7 136.9 416 137.1 418.3C137.7 425.3 137.4 432.3 136 439.3C135.8 440.4 135.3 441.6 133.8 441.5C132.4 441.5 131.4 440.7 131 439.3C130.6 437.9 130.3 436.5 129.9 435.2C129.5 433.9 129 432.6 128.6 431.3C128.2 430.2 127.6 429 127.3 428.3C127.1 434.2 126.9 440.3 126.4 446.5C126.4 447.4 125.8 448.8 125.3 449C124.4 449.2 123.2 448.7 122.4 448C119.6 445.5 117.1 443 114.3 440.2C114.7 441.4 115.4 442.4 115.6 443.5C115.8 444.6 115.6 445.7 115.6 447.2C115.7 447.3 116.3 447.8 116.8 448.2C127.7 456 139 462.9 151 468.8C173.3 479.6 196.8 487.1 221.5 490.6C234.8 492.5 248.1 493.2 261.6 493.1C277.5 492.9 293.2 490.8 308.7 487.2C341.2 479.6 370.8 465.9 397.4 446C398.5 446 398.9 445.3 399.6 444.8C398 444.6 397 443.8 396.4 442.5ZM147.3 452.3C145.3 452.9 144.9 453.9 145.1 455.6C145.2 456.9 145.3 458.4 145.1 459.6C145 460.4 144.1 460.9 143.7 461.6C143.1 460.9 142.2 460.4 142.2 459.7C142.1 454.7 142.1 449.8 142.1 444.8C142.1 443 143.4 442.8 145.3 442.9C145.6 442.9 146.3 443 147 443.2C149.2 443.8 150.9 445.5 151 447.5C151 449.6 149.7 451.7 147.3 452.3ZM159.6 464.7C159.6 466.1 159.3 467.5 157.6 467.5C155.9 467.5 155.8 466.1 155.8 464.7C155.8 458.5 155.7 452.3 155.7 446.1C155.7 444.8 155.8 443.3 157.6 443.3C159.1 443.3 159.4 444.7 159.4 446C159.6 449.3 159.6 452.4 159.6 455.6V464.7ZM177.6 446.8C175.7 447.1 173.6 447.2 171.8 447.2C170.5 447.2 169.9 447.6 170 449C170.1 451 170.1 452.9 170 454.9C170 456.1 170.6 456.6 171.7 456.7C173.2 456.8 174.9 456.9 176.3 457.5C177 457.7 177.4 458.8 177.8 459.5C177 459.9 176.4 460.7 175.6 460.7C174.3 460.8 173.1 460.5 171.7 460.3C170.5 460.1 169.9 460.4 169.9 461.7C169.9 464.3 169.9 466.7 170 469.3C170 469.9 170.8 470.7 171.3 470.9C173 471.6 174.7 471.8 176.4 472.5C177.2 472.8 178.3 473.9 178.3 474.6C178.2 476 176.9 476 175.5 475.7C173.3 475 171.1 474.4 168.8 473.8C167.1 473.4 166.4 472.4 166.4 470.6V447C166.4 445.4 167.1 444.4 168.7 444.2C170.4 443.9 172.1 443.8 173.9 443.6C175 443.5 176.3 443.2 177.3 443.5C178.2 443.6 179 444.5 179.8 445.1C179.2 445.7 178.5 446.7 177.6 446.8ZM192.1 475.7C190.2 477.4 188.1 478.5 185.5 478.5C183.7 478.6 183 477.8 183 476V475C183 464.5 182.9 454.2 182.9 443.8C182.9 440.6 184 439.7 187.2 440.5C191.7 441.7 194.6 445 196.1 449.1C197.5 452.6 198 456.2 198.5 458.3C198.1 465.9 196.8 471.5 192.1 475.7ZM203.3 482.8C201.1 482.8 201.6 480.7 201.6 479.2V459.4C201.5 459.4 201.5 459.4 201.5 459.4V439.8C201.5 439.1 201.4 438.4 201.6 437.8C201.9 437.1 202.7 436.4 203.3 436.4C203.9 436.4 204.6 437.2 205 437.8C205.2 438.1 205.1 438.8 205.1 439.4C205.1 452.7 205.2 465.9 205.2 479.3C205.1 480.7 205.6 482.8 203.3 482.8ZM228.9 451C227.1 452.1 225.2 453 223.2 453.6C221.7 454 221.2 454.6 221.2 456.2C221.3 465 221.3 473.9 221.3 482.7V483.1C221.3 484.4 220.9 485.3 219.5 485.3C218.1 485.3 217.6 484.3 217.6 483C217.5 475.4 217.5 467.8 217.5 460.2V437.9C217.5 435.2 217.9 434.9 220.6 434.9C223.6 434.9 226.3 435.6 228.7 437.1C234.1 440.5 234.2 447.4 228.9 451ZM250.8 436.4C248.3 436.5 245.7 436.7 243.2 436.8C241.7 436.8 241.2 437.5 241.2 438.9C241.3 443.6 241.3 448.1 241.2 452.8C241.2 454.1 241.8 454.6 243 454.6C244 454.5 245.1 454.4 246 454.7C246.7 454.9 247.1 455.8 247.8 456.4C247.2 457 246.7 457.8 246 458C244.7 458.2 243.2 458 241.6 458C241.5 458.8 241.5 459.4 241.5 460V480.1C241.5 481.8 241.9 482.4 243.7 482.4C245.8 482.5 247.8 482.5 249.8 483C250.7 483.1 251.3 484.1 252.1 484.8C251.2 485.2 250.4 486.2 249.6 486.2C246.4 486.2 243.2 485.9 240 485.5C238.5 485.4 237.8 484.5 237.8 482.9V437.9C237.8 434.3 236.8 433.6 242.1 433.3C245 433.2 247.8 433 250.7 432.9C251.9 432.9 253.2 432.8 253.3 434.5C253.4 436 252.1 436.3 250.8 436.4ZM274.5 486.2C273 486.6 272.4 485.5 272 484.3C269.1 475.9 266.4 467.7 263.5 459.4C263.3 458.7 263.1 458.2 262.4 457.7C262.4 458.4 262.3 459 262.3 459.6V483.6C262.3 484 262.4 484.7 262.3 485C261.9 485.7 261.2 486.6 260.5 486.6C259.8 486.6 259.1 485.8 258.7 485.2C258.4 484.8 258.6 484 258.6 483.4C258.6 467.6 258.6 451.9 258.5 436C258.5 433.5 258.9 433.2 261.4 433.1C265.1 433 268.6 433.8 271.4 436.3C275 439.4 275.4 444.8 272 448C270.1 449.7 267.7 450.9 265.1 452.6C266.2 455.8 267.4 459.5 268.6 463.1C270.8 469.8 273.1 476.5 275.4 483.2C275.8 484.4 276 485.7 274.5 486.2ZM305.8 435.6H294.9V482.7C294.9 483.9 294.6 484.9 293.1 485C291.6 485 291.1 484 291.1 482.7C291.1 477.4 291 471.9 291 466.5V437.7C291 436 290.6 435.5 288.8 435.5C285.3 435.6 281.8 435.5 278.1 435.5C277.4 435.5 276.7 435.5 276.1 435.3C275.7 435.1 275.1 434.3 275 433.9C275 433.5 275.6 432.8 276 432.6C276.7 432.3 277.4 432.3 278.2 432.3C287.2 432.3 296.1 432.3 305.2 432.2H305.6C306.9 432.3 308.7 432.1 308.8 434C308.8 435.9 307.1 435.6 305.8 435.6ZM327.8 435.9C323.7 435.5 319.9 435.2 315.7 434.9V452.6C317.7 452.4 319.4 452.2 321.2 451.9C322.5 451.8 323.8 451.8 324.1 453.3C324.3 454.9 323 455.1 321.8 455.3C320.3 455.5 318.7 455.7 317.2 455.9C316.2 456 315.8 456.2 315.8 457.3V476.2C318.8 475.5 321.6 474.8 324.4 474.1C325.2 474 325.8 473.4 326.6 473.7C327.6 473.8 328.9 474.1 329.2 474.9C329.9 476.2 328.6 476.8 327.4 477C323.9 477.9 320.2 478.8 316.7 479.7C312 480.9 312 481 312.1 476.1C312.1 469.1 312 461.9 312 454.9V434.1C312 432.2 312.9 431.3 314.8 431.4C319.3 431.7 323.8 432 328.2 432.4C329 432.5 330.4 433.5 330.4 434.2C330.4 435.8 329 436 327.8 435.9ZM345.5 469.6C344 470.2 343.3 468.9 343 467.7C341.9 464.6 340.8 461.5 339.7 458.2C339.3 456.8 338.7 455.3 338.2 453.9C338.1 453.9 337.9 454 337.8 454V471.7C337.8 472.9 337.4 473.9 335.9 473.9C334.5 473.9 334.1 472.9 334.1 471.7V438.2C334.1 436.4 334.9 435.6 336.6 436C338 436.2 339.6 436.4 340.9 437C346.1 439.1 346.7 444.9 342.2 448.1C340.9 449.1 340.7 449.9 341.2 451.3C343 456.2 344.5 461.2 346.3 466.2C346.3 466.3 346.4 466.4 346.4 466.5C346.9 467.8 347 469.1 345.5 469.6ZM360.4 452.4C361.5 455.3 362.5 458.3 363.4 461.3C363.8 462.4 363.8 463.5 362.5 464.1C361.2 464.5 360.3 463.8 360 462.5C359.6 460.9 359 459.4 358.5 457.8C357.9 456.2 357.4 454.8 356.8 453.2C356.6 453.1 356.5 453.1 356.2 453.1V461.8C356.2 463 356.4 464.4 356.1 465.5C355.9 466.4 355.1 467.6 354.3 467.7C352.9 468 352.4 466.7 352.4 465.5V440.9C352.4 438.7 353.4 437.6 355.7 437.8C357.5 438 359.3 438.5 360.9 439.4C365 441.9 365.1 446.8 361.2 449.5C360 450.4 359.8 451.1 360.4 452.4ZM382.5 454.3C382.2 454.6 381.2 454.2 380.5 454.1C380.3 454.1 380.2 453.7 379.9 453.4C379 452.6 379.1 450.4 377.4 451.1C375.3 451.9 372.4 452.2 372.2 455.6C372.1 456.9 371.8 458.3 371.3 459.6C371.1 460 370.1 460.7 369.6 460.6C369.2 460.5 368.6 459.6 368.3 459.3C369.3 454.5 370.1 450.1 370.9 445.6C371.2 444 371.5 442.5 371.9 441C372.1 440.3 372.9 439.6 373.4 439.4C374 439.3 375.1 439.7 375.5 440.3C378 444.3 380.5 448.2 382.8 452.3C383.3 452.8 382.9 453.9 382.5 454.3Z" fill="#098407"/>
<path fill-rule="evenodd" clip-rule="evenodd" d="M328.6 425.7C328 426.1 327.2 426.1 326.5 426.1C318.8 425.7 311.2 425 303.5 424.8C292.7 424.6 282 424.6 271.2 424.6H269.5C269.5 422.7 269.5 421.1 269.6 419.1H297.6C299.8 419.1 301.5 418.8 302.3 416.1C302.7 414.8 304.6 413.4 306.2 412.9C312.9 410.3 319.7 410.4 326.5 413.2C331.1 415.1 332.2 422.2 328.6 425.7Z" fill="#1F1F1F"/>
<path fill-rule="evenodd" clip-rule="evenodd" d="M265.1 424.4C262.6 424.4 260.1 424.3 257.7 424.4C248.6 424.8 239.4 425.2 230.4 425.7C223.4 426.1 216.4 427 209.4 427.7C208.8 427.7 208.1 427.6 207.6 427.3C205.1 425 203.4 422.1 203 418.5C202.8 416.5 203.4 414.9 205.3 413.9C209.6 411.4 214.3 410.7 219.1 411.1C222.3 411.4 225.5 412.4 228.5 413.6C229.8 414 230.8 415.6 231.4 416.9C232.2 418.9 233.7 419 235.4 419H265C265.1 421 265.1 422.7 265.1 424.4Z" fill="#1F1F1F"/>
<path fill-rule="evenodd" clip-rule="evenodd" d="M264.1 415.4C263.4 415.4 262.9 415.5 262.3 415.5H236.4C235.8 415.5 234.7 415.3 234.5 414.8C232.2 410.5 228.1 409.1 223.8 408.1C218.5 406.9 213.2 407.2 207.9 408.8C207.7 408.8 207.2 408.8 206.6 408.9C209.9 405.4 213.6 403.3 217.6 402.2C230.2 398.1 242.4 398.6 254.3 404.3C256.9 405.5 259.1 407.6 261.6 409.4C263.6 410.8 264.1 413 264.1 415.4Z" fill="#1F1F1F"/>
<path fill-rule="evenodd" clip-rule="evenodd" d="M324.6 407.8C320.2 407.7 315.9 407.2 311.6 407.7C308.4 408 305.3 409.4 302.4 410.6C301.2 411 300.1 412.3 299.4 413.5C298.6 415.1 297.6 415.4 296.1 415.4H269.8C269.5 411.8 271.1 409.6 273.4 407.4C279 402.8 285.7 400.8 292.8 400C302.3 399 311.3 400.2 319.8 404.7C321.5 405.6 323.2 406.8 324.6 407.8Z" fill="#1F1F1F"/>
<path fill-rule="evenodd" clip-rule="evenodd" d="M296.8 396.2C290.7 396.3 285.1 397.4 279.5 399.7C279.1 399.8 278 399.5 277.6 399C275.5 395.7 275.7 390.6 278 387.4C279.4 385.3 281.6 384.6 283.8 384.5C286.6 384.3 289.2 384.6 291.9 384.8C292.3 384.9 292.9 385.4 293.2 385.7C296.1 388.7 297 392.2 296.8 396.2Z" fill="#1F1F1F"/>
<path fill-rule="evenodd" clip-rule="evenodd" d="M274.5 402C272.6 403.6 270.9 405.1 268.8 406.8V396.1C271.6 397.4 273.2 399.5 274.5 402Z" fill="#1F1F1F"/>
<path fill-rule="evenodd" clip-rule="evenodd" d="M264.9 396V406.6C262.8 404.9 260.9 403.5 258.8 401.9C260.1 399.3 261.8 397.3 264.9 396Z" fill="#1F1F1F"/>
<path fill-rule="evenodd" clip-rule="evenodd" d="M256.2 397.3C255.9 398.2 255.3 399.1 255.1 399.5C248.7 398.1 242.8 396.6 236.4 395.2C236.2 391.9 237.3 388.5 239.9 385.7C240.5 385 241.6 384.8 242.4 384.7C244.6 384.6 247 384.3 249.2 384.6C255.4 385.6 258.5 391.3 256.2 397.3Z" fill="#1F1F1F"/>
<path fill-rule="evenodd" clip-rule="evenodd" d="M272 328.9C271 330 270 331 268.8 332.4V328.9H272Z" fill="#1F1F1F"/>
<path fill-rule="evenodd" clip-rule="evenodd" d="M264.9 328.9V332.8C263.7 331.5 262.6 330.2 261.3 328.9H264.9Z" fill="#1F1F1F"/>
<path fill-rule="evenodd" clip-rule="evenodd" d="M248.5 328.9C247.6 329.9 246.5 330.9 245.6 331.9C245.5 327.9 246.4 327.9 248.5 328.9Z" fill="#1F1F1F"/>
<path fill-rule="evenodd" clip-rule="evenodd" d="M248.3 354.3C246.8 354.3 245.3 354.4 243.9 354.2C243.5 354.1 242.8 353.1 242.8 352.5C242.8 350.9 243.2 349.3 243.5 347.7C245.1 349.9 246.5 352 248.3 354.3Z" fill="#1F1F1F"/>
<path fill-rule="evenodd" clip-rule="evenodd" d="M264.8 349.8V354.1H260.8C262.3 352.6 263.4 351.3 264.8 349.8Z" fill="#1F1F1F"/>
<path fill-rule="evenodd" clip-rule="evenodd" d="M272.4 354.2H268.8V350.3C270.1 351.7 271.2 352.9 272.4 354.2Z" fill="#1F1F1F"/>
<path fill-rule="evenodd" clip-rule="evenodd" d="M288.9 354.5C287.6 354.6 286.3 354.4 285 354.4C286.7 351.9 288.3 349.6 290 347.3C290.3 348.7 290.8 350.3 291 352C291.1 353.3 290.3 354.3 288.9 354.5Z" fill="#1F1F1F"/>
<path fill-rule="evenodd" clip-rule="evenodd" d="M260.3 349.6C256.8 353.6 251.2 353.2 248.4 348.6C247.2 346.6 246.7 344.3 246 342C246.6 338.5 247.5 335.5 249.7 333.1C252.9 329.8 257.7 330 260.6 333.5C264.3 338 264.1 345.3 260.3 349.6Z" fill="#1F1F1F"/>
<path fill-rule="evenodd" clip-rule="evenodd" d="M286.8 343.3C286.8 344.7 286 347.3 284.2 349.5C281.2 353.1 276.6 353.3 273.3 349.9C269.1 345.7 268.8 337.9 272.7 333.3C275.5 330.2 280 329.8 283 332.7C285.7 335.3 286.8 338.4 286.8 343.3Z" fill="#1F1F1F"/>
<path fill-rule="evenodd" clip-rule="evenodd" d="M329.8 238C328.8 240.9 327.8 243.8 326.5 246.7C326.1 241.8 324.6 237.3 321.7 233.4C321.8 233.3 321.9 233.1 322 233C324.5 234.2 327 235.5 329.4 236.9C329.5 237 329.9 237.7 329.8 238Z" fill="#D50004"/>
<path fill-rule="evenodd" clip-rule="evenodd" d="M301 226.4C293.6 228.6 288.9 233.1 286.2 240.3C284.2 234.4 282.6 229.3 280.8 223.7C287.7 223.8 294.1 224.8 301 226.4Z" fill="#D50004"/>
<path fill-rule="evenodd" clip-rule="evenodd" d="M212.2 232C208.9 236 206.7 240.4 206.3 245.6C206.2 245.5 206 245.5 205.9 245.5C205 242.7 203.9 239.9 203 237.1C202.9 236.7 203.2 235.8 203.6 235.7C206.2 234.2 209.2 233.1 212.2 232Z" fill="#D50004"/>
<path fill-rule="evenodd" clip-rule="evenodd" d="M249.5 223.8C248.4 228.8 247.5 233.3 246.5 238.2C243.2 232.2 238.8 228.1 232.3 226.5V226C237.9 225.3 243.4 224.6 249.5 223.8Z" fill="#D50004"/>
<path fill-rule="evenodd" clip-rule="evenodd" d="M367 136.6C363.5 126.6 357.6 118 348.7 112C337.8 104.6 325.7 103.2 313 105.1C296.7 107.6 282.8 115.4 269.5 124.5C268.5 125.2 267.6 126.7 266.7 126.7C265.7 126.7 264.7 125.4 263.6 124.7C256.3 119.8 249 115 240.9 111.4C228.8 106.1 216.2 102.8 202.9 104.7C187 106.9 175.6 115.7 168.6 129.9C161.4 144.3 160.1 159.7 161.6 175.4C162.6 186.2 164.9 196.8 168.3 207.2C176.1 230.9 188.1 252.2 204.4 271.1C216.7 285.5 230.9 297.7 247.8 306.5C248.2 306.7 248.8 306.8 249.3 307.2C250 303.4 250.3 299.7 251.2 296.2C251.8 293.9 251.1 292.6 249.3 291.1C243.4 285.9 239.7 279.3 240.1 271C240.2 268.4 240.4 265.9 240.7 263.6C237.6 265 234.5 266.5 231.2 268.1C231.3 268.2 231.5 268.4 231.6 268.8C234.7 272.5 233.6 276 228.8 277C224.1 278.1 219.6 276.9 215.7 274C214 272.8 212.7 271.2 212.8 268.9C212.8 268.3 212.4 267.7 212 267.1C206.6 258.1 202.4 248.5 199.3 238.5C198 234.2 198 234.2 202.1 232.3C212.4 227.4 223.2 224.2 234.6 222.3C238.7 221.6 242.7 221.2 246.9 220.6C226.2 207.1 228.2 181.1 240.5 168.7C253.6 155.5 274.5 155.2 287.9 168.3C300.6 180.3 303.3 205.9 282.9 220.2C283.3 220.2 283.7 220.3 284 220.3C293.2 221.1 302.3 222.9 311.2 225.5C318.4 227.6 325.2 230.4 331.7 234.2C333.9 235.5 334.2 236.1 333.4 238.4C330.9 244.9 328.2 251.2 325.6 257.7C323.9 261.8 320.6 265.3 319.8 269.7C319.7 270.5 319 271.1 318.4 271.7C314.7 275.2 310.1 276.7 305.1 276C303.2 275.8 301.6 274.9 300.8 273C300 271 300.9 269.4 302.1 268C302.4 267.6 302.8 267.1 303 266.9C299.8 265.6 296.7 264.4 293.9 263.2C294.1 264.9 294.7 266.9 294.7 268.9C295 279.2 290.8 287.4 282.4 293.3C281.8 293.6 281.3 294.6 281.3 295.2C281.9 299.2 282.6 303.2 283.4 307.6C286.6 305.8 289.7 304.1 292.6 302.4C306.9 293.6 319.2 282.5 329.8 269.6C352.9 241.3 368.2 209.8 371.2 172.8C372.3 160.3 371.2 148.3 367 136.6ZM191.4 222.4C191.1 222.7 190.1 222.8 189.5 222.6C188.8 222.4 188.3 221.8 187.7 221.3C180.5 214.5 175.9 206 172.7 196.8C166.3 178.3 164.9 159.5 170.2 140.4C172.3 132.7 175.5 125.6 181.3 120C183.5 117.9 186.3 116.4 188.8 114.8C189.4 114.7 190 114.6 191 114.2C191.4 114.5 192.2 115 192.4 115.5C192.5 115.9 192.2 116.7 192 117.3C192 117.4 191.7 117.6 191.6 117.6C181.5 121.8 177.2 130.6 174.1 140.2C170.4 152.1 170 164.3 171.7 176.5C173.1 187.4 176.1 198 181.8 207.5C184.3 211.6 187.7 215.2 190.7 219.1C191 219.5 191.7 219.9 191.7 220.3C191.8 221.1 191.8 222 191.4 222.4ZM205.7 195.9C206.1 201.7 206.4 207.5 206.5 213.3C206.5 214.6 206.2 216.2 205.6 217.4C204.5 220.2 202.2 220.7 199.9 218.7C196.2 215.5 194 211.3 192.7 206.7C187.6 187.9 186.5 168.8 188.7 149.4C190 137.7 192.3 126.2 195.5 115C195.8 113.9 196.3 112.5 197.6 113.2C198.2 113.4 198.7 115.1 198.5 115.9C197 122.7 195 129.5 193.8 136.3C190.8 153.6 189.5 171 192.3 188.3C193.3 194.8 194.8 201.1 196.4 207.5C197.3 210.5 199.2 213.3 202.1 216C202.4 214.6 203 213.4 202.9 212.3C202.8 206.3 202.3 200.4 202.2 194.4C202.1 189.1 202.1 183.8 202 178.5C201.9 170.3 201.6 162 201.9 153.8C202.1 145.3 203.1 136.9 203.6 128.4C203.8 124.5 203.7 120.6 203.8 116.8C203.8 115.8 203.7 114.8 204.1 114C204.4 113.3 205.4 112.9 206.1 112.3C206.7 113.1 207.6 113.9 207.6 114.5C207.3 122.1 206.8 129.7 206.4 137.1C205.2 156.6 204.3 176.3 205.7 195.9ZM223.3 138.5C223 159.7 222.7 180.8 222.4 202C222.3 207 222 212 221.7 217.2C221.6 220.1 219.5 221.3 217 220.1C212.9 218.2 211.3 214.5 210.8 210.4C210.1 203.5 209.7 196.6 209.5 189.7C209.3 182.3 209.5 175 209.5 167.6C209.3 167.5 209.2 167.5 209.1 167.5C209.1 156.1 208.9 144.7 209.2 133.2C209.3 126.6 210.2 119.9 211.2 113.4C211.8 109.3 216.4 107 220 108.7C223.2 110.1 223.6 113.3 223.6 116.3C223.6 123.5 223.4 131 223.3 138.5ZM235 173C233.3 173.2 233 171.9 232.8 170.7C231.8 164.1 230.9 157.7 229.9 151.1C229.8 150.2 229.6 149.3 229.3 148.5H228.6V155.7C229 173.9 229.6 191.9 230 210C230 211.8 230.1 213.6 230.1 215.3C230.1 216.5 229.9 217.9 228.4 217.9C226.9 217.9 226.5 216.7 226.5 215.3C226.2 205.7 225.7 196.1 225.6 186.5C225.4 171.8 225 157.1 225.4 142.4C225.6 133.5 226.9 124.6 227.8 115.5C228 113.2 229.3 112.6 231.7 113C237.8 114.2 240 122.2 238.5 126.5C237.1 130.5 235.1 134.3 231.6 136.9C230.4 137.8 230.9 138.7 231 139.6C232.7 149.5 234.3 159.4 236.1 169.4C236.1 169.6 236.2 170 236.2 170.2C236.5 171.5 236.5 172.8 235 173ZM242.2 155C241.9 158 241.8 160.9 241.4 163.9C241.3 165.2 241.2 166.7 239.3 166.5C237.6 166.3 237.8 164.8 237.9 163.6V162.8C237.9 162.9 237.8 162.9 237.6 162.8C239.1 148.6 240.6 134.4 242.1 120.2C242.1 119.6 242.1 119 242.4 118.6C243 118 243.8 117.3 244.5 117.5C245.1 117.6 245.8 118.8 245.7 119.4C245.6 121.5 245 123.7 244.9 125.9C244 135.6 243.1 145.3 242.2 155ZM262.3 129.9C261.5 137.6 260.9 145.2 260.1 152.9C260 153.9 259.2 155.4 258.6 155.5C257.1 155.8 256.8 154.4 256.4 153.2C254.6 147.5 252.9 141.8 251.1 136.1C251.1 136.2 251 136.2 250.9 136.2C250.3 142.8 249.7 149.5 249.1 156.1C249.1 156.8 249.1 157.5 248.8 158.1C248.4 158.9 247.5 159.4 246.9 160C246.5 159.2 245.5 158.4 245.5 157.7C245.5 155.4 245.7 152.9 245.9 150.6C246.8 142 247.7 133.4 248.5 124.9C248.6 124.1 248.5 123.5 248.5 122.7C248.5 121.3 249.3 120.2 250.7 120.4C252.1 120.4 252.1 121.5 252.5 122.7C253.9 129.3 255.4 135.9 256.8 142.3C256.8 142.4 257 142.4 257.2 142.6C257.8 138.1 258.3 133.9 258.7 129.6C258.8 128.3 259.1 126.9 260.7 127C262.5 127 262.4 128.6 262.3 129.9ZM268.3 140.8C269.7 141.9 269.7 142.9 268.3 144C267.7 144.4 267.2 145.1 267.1 145.8C266.8 148.3 266.7 150.6 266.4 153.4C267.4 153.4 268.3 153.2 268.9 153.4C269.7 153.7 270.3 154.4 271 155C270.4 155.7 270 156.3 269.3 156.8C269 157.1 268.2 157 267.8 157C263.1 157.1 262.6 156.9 263 152.1C263.3 146.5 263.8 141 264.1 135.4C264.2 134.3 264.2 133.2 264 132.2C263.6 130.5 264.2 129.6 265.8 129.4C267.2 129.3 268.7 129.1 270.1 129.4C270.9 129.5 271.4 130.7 272 131.4C271.3 131.8 270.6 132.5 269.8 132.8C269.1 133.1 268.5 133 267.7 133C267.6 135.3 267.5 137.5 267.5 139.7C267.4 140 267.9 140.6 268.3 140.8ZM280.7 159.3C278.8 158.9 277.1 157.9 275.2 157.3C273.5 156.7 272.8 155.7 272.9 154C273.2 145.3 273.5 136.6 273.8 127.9C273.8 126.5 273.8 124.4 275.9 124.7C278 124.8 277.4 126.7 277.1 128C277 135.9 276.8 143.9 276.5 151.8C276.5 153.4 276.9 154.1 278.4 154.6C279.7 155 281.2 155.5 282.3 156.3C282.9 156.6 283 157.7 283.2 158.5C282.3 158.9 281.3 159.5 280.7 159.3ZM293 118.9C287.9 126 286.5 134.2 286.2 142.6C286.1 148.1 287.3 153.2 290.2 158C291.1 159.4 292 160.9 292.5 162.5C292.7 163.2 292.2 164.2 291.9 165C291.1 164.7 289.9 164.7 289.5 164.1C285.6 157.5 282.1 150.7 282.7 142.6C283.1 133.6 284.6 124.8 290.1 117.2C291 116.1 291.5 114.1 293.4 115.3C295.1 116.3 293.9 117.7 293 118.9ZM297.7 172.7C296.3 172.7 296.2 171.4 296.2 170.2V161.8C296.1 161.7 296 161.7 296 161.7C297.1 150.2 298.1 138.7 299.2 127.3C299.5 123.6 300 119.8 300.3 116.2C300.3 115.8 300.3 115.4 300.4 115C300.6 113.8 300.6 112 302.4 112.2C304.3 112.3 303.9 114 303.8 115.4C302.5 129.9 301 144.4 299.8 159C299.5 162.7 299.6 166.5 299.5 170.3C299.5 171.5 299.4 172.7 297.7 172.7ZM308.6 161.4C309.6 161.4 310.6 161.3 311.5 161.6C312.3 161.9 312.9 162.7 313.6 163.3C312.8 163.9 312.2 164.7 311.4 164.9C310.4 165.1 309.2 164.8 308.2 164.9C307.6 165 306.8 165.7 306.8 166.2C305.9 177.9 305 189.7 304.3 201.4C304.1 204.6 304.1 207.9 303.7 211C303.6 212.6 303.9 213.2 305.5 213.5C307.3 213.8 308.9 214.3 310.7 214.8C311.8 215.1 312.9 215.6 312.5 217C312.2 218.3 311.1 218.4 309.9 218.1C307.3 217.4 304.6 216.8 302 216.2C300.6 215.9 300.1 215.1 300.1 213.6C300.2 211.4 300.3 209.1 300.4 206.8C300.1 206.9 300.1 206.9 300 206.9C301.1 192.7 302 178.7 303.3 164.6C304.3 153.3 305.7 142 306.9 130.7C307.6 125.1 308.1 119.4 308.7 113.9C308.8 112.2 309.5 111.4 311.1 111.2C314.7 110.8 318.4 110.2 322 109.6C322.4 109.6 322.9 109.4 323.2 109.6C324 110 324.6 110.6 325.3 111C324.7 111.7 324.3 112.7 323.8 112.8C321 113.4 318.3 113.7 315.5 114C312.4 114.3 312.3 114.3 312 117.3C310.5 131.3 308.9 145.4 307.4 159.5C307.1 161 307.5 161.3 308.6 161.4ZM332.4 225.4C331.6 225.6 330.6 225.7 330 225.5C326.8 224.3 323.7 222.9 320.5 221.7C319.7 221.4 319 221.1 318.1 221.1C316 221.2 315.6 220 315.6 218.2V212.3C316.7 203.2 317.5 193.9 318.8 184.7C322 161.9 325.3 139 328.6 116.2C328.8 114.4 329 112.6 329.4 111C329.6 109.8 330.1 108.7 331.6 108.9C333 109.1 333.1 110.3 332.9 111.5C331.9 118.3 330.9 125 329.9 131.7C327.8 146.5 325.5 161.2 323.5 175.9C322.1 186.5 320.9 197.1 319.6 207.8C319.3 210.5 319.5 213.3 319.3 215.9C319.2 217.1 319.6 217.7 320.8 218.1C324.3 219.4 327.7 220.9 331.1 222.3C331.9 222.6 332.4 223.4 332.9 224.1C333.1 224.3 332.7 225.3 332.4 225.4ZM359.5 197.3C357.1 206.8 354.1 216.1 349.7 224.9C349.3 225.9 348.6 226.8 348 227.7C345 232.4 339.3 230.5 337.1 226.7C335.3 223.6 335.7 220.2 336.2 217C337.5 208.4 338.8 199.8 340.2 191.3C342.6 175.4 344.9 159.5 347.4 143.7C348.1 139 349.1 134.5 349.9 129.9C350.2 128 350.9 126 353.1 125.6C355.4 125.2 357.1 126.4 358.4 128.1C361 131.7 362.5 135.7 362.8 140C363.1 145.8 363.5 151.9 363.8 158.1C363.3 171.2 362.8 184.4 359.5 197.3Z" fill="#D50004"/>
<path fill-rule="evenodd" clip-rule="evenodd" d="M485.8 199.3C477.7 167.1 463.5 137.8 443 111.6C417.9 79.5 386.5 55.3 349 39.4C325.2 29.3 300.3 23.2 274.5 21.3C261.6 20.3 248.7 20.4 236 21.5C220.1 22.9 204.6 25.8 189.4 30.4C159.9 39.2 133 53.2 109 72.4C84.8 91.9 65.1 115.1 50.1 142C33.4 172.1 23.7 204.4 20.9 238.7C19.7 254.3 20.1 269.9 22 285.4C24.3 304.8 28.9 323.6 36 341.9C47 370.5 63.1 396.2 84.1 418.6C86.3 420.9 88.7 423.2 91.3 425.6C91.2 425 91.2 424.8 91.1 424.7C90.7 423.5 90 422.1 91.5 421.4C93 420.6 93.7 421.8 94.6 423C97.1 426.1 99.7 429.2 102.4 432.1C105 434.9 107.9 437.2 110.8 439.8C110.9 439.7 111.1 439.6 111.2 439.5C110.5 436.8 109.7 434.2 109.2 431.5C109.1 430.8 109.6 429.6 110.2 429.3C110.6 429 111.7 429.6 112.4 430C112.7 430.1 112.8 430.7 113.1 431C116.2 435.7 119.7 439.9 124 444C124.1 442.7 124.3 441.7 124.3 440.7C124.6 432.3 124 424 121.8 415.8C121.5 414.5 121.5 413.3 122.8 412.9C124.2 412.5 124.8 413.6 125.2 414.8C125.5 415.8 125.6 416.9 126.2 417.8C127.6 420.4 129.3 422.8 130.8 425.4C131.5 426.5 131.9 427.9 132.5 429.1C132.9 430.2 133.5 431.4 134 433.1C134.2 432.1 134.3 431.5 134.4 431C135 421.6 134.4 412.5 131.4 403.6C131 402.4 130.3 401 131.8 400.1C133.5 399.2 134.6 400.3 135.3 401.5C137.2 404.4 139.2 407.3 141 410.2C141.8 411.3 142.3 412.7 143.2 414.2C145.3 402.8 151.3 395 162.4 392.7C173.4 390.4 182.4 394.5 188.9 403.7C189.6 401.2 190.1 398.8 191 396.6C191.3 395.8 192.4 395.4 193.2 394.8C193.6 395.7 194.2 396.6 194.4 397.5C194.7 399.1 194.3 400.8 194.8 402.3C196.1 406.3 197.8 410.2 199.2 414.1C199.3 414.4 199.6 414.8 199.6 414.8C201.1 412.1 202.5 409.2 204.3 406.8C208.7 401.2 215 398.8 221.6 397.1C224.6 396.3 228.5 396 232.3 395.4C232.6 393.5 232.7 391.5 233.4 389.7C234.1 387.8 235.2 386 236.2 384.2C236.5 383.5 236.6 382.9 236.8 382.3C238.1 374.5 239.6 366.6 240.8 358.8C240.9 358.1 240.5 357.4 240.2 356.6C239.8 354.9 238.9 353.3 238.9 351.7C238.9 349.5 239.7 347.1 240 344.9C240.7 339.8 241.3 334.5 242 329.4C242.2 327.7 242.8 326.2 244.4 325.7C246.3 325.3 246.7 323.9 246.9 322.4C247.2 320.4 247.6 318.4 247.9 316.4C248.1 314.8 249 312.8 248.3 311.7C247.6 310.5 245.7 310 244.2 309.2C226 299.3 211 285.8 198.2 269.7C175.9 241.6 161 210.3 157.9 174C156.8 161.6 157.8 149.4 161.8 137.6C166.2 124.2 173.9 113.2 186.6 106.5C198.8 100 211.8 99.6 225.1 102.5C239.9 105.7 252.8 112.4 265 121.3C266.1 122.1 266.8 122.5 268.2 121.5C282.4 111 297.8 103.3 315.6 101.2C326.2 100 336.4 101.2 346 106C359.5 112.9 367.5 124.4 372 138.7C375.9 150.7 376.4 163.1 375.3 175.7C374.4 186.6 372.1 197.3 368.8 207.8C362.1 229.2 351.6 248.6 338 266.3C323.7 284.8 306.8 300.3 285.9 311C284.8 311.6 284.5 312.1 284.7 313.3C285.4 316.9 285.9 320.4 286.6 323.9C286.7 324.7 287.5 325.7 288.3 326.1C289.7 327 290.8 328 291.2 329.8C292.3 336.7 293.5 343.7 294.8 350.6C295.2 352.9 295 354.8 293.4 356.6C293 357.2 292.6 358.2 292.7 358.8C293.6 364.3 294.5 369.8 295.5 375.3C295.9 378.1 295.9 381.3 297.3 383.7C299.6 387.7 301.3 391.7 301.3 396.3C314.6 397.7 326.8 401 334.2 413.9C335.3 406.7 336.2 399.9 333.2 393.2C332.9 392.5 333.2 391.4 333.8 390.7C334 390.4 335.6 390.6 335.9 390.9C337.3 392.5 338.7 394.1 339.8 396C342.7 401.3 344 407 344.8 412.9C345.1 415.6 345.5 418.4 345.8 421.3C348.1 417.5 350.2 413.9 352.5 410.5C352.9 409.8 354.3 409.2 354.9 409.4C355.6 409.6 356 411 356.2 411.9C356.4 413.3 356.2 414.8 356.2 416.4C356.4 415.6 356.6 415 356.8 414.3C357.1 411.4 357.5 408.5 357.7 405.6C357.8 403.8 358.8 402.7 360.3 402.5C361.8 402.2 362.4 403.6 362.6 404.8C363.4 408.1 364.3 411.4 364.9 414.7C365.5 417.5 365.7 420.3 366.1 423.7C366.8 422.6 367.1 422 367.4 421.4C371.5 414.4 376.2 407.9 382.4 402.7C383.1 402.1 384.3 402.3 385.3 401.9C385.5 402.9 386.1 404 385.7 404.8C383.2 411.6 381.7 418.6 381.3 425.9C381.2 428 381.3 430.1 381.3 432.3C381.4 432.3 381.6 432.4 381.7 432.4C383.2 430.1 384.9 427.7 386.4 425.4C387.5 423.6 388.3 421.7 389.4 420.1C389.8 419.4 390.8 418.8 391.5 418.8C392.2 418.9 392.8 419.8 393.2 420.5C393.5 421.3 393.6 422.2 393.9 423.1C395 428.2 396.7 433.2 399 438.1C399.2 437.8 399.4 437.7 399.4 437.4C402.3 432.1 405.2 426.8 408.1 421.5C408.4 420.9 408.8 420.4 408.9 419.8C409.2 418.5 409.7 417 411.3 417.6C413 418 412.6 419.5 412.4 420.8C411.8 425.3 411.4 429.7 411 434.2C411 434.8 411.1 435.3 411.1 435.9C415.7 433.6 417.5 428.2 422 426.2C437.1 411.5 450 395.1 460.5 376.9C480 343.5 490.8 307.4 492.8 268.7C493.8 245.1 491.5 222.1 485.8 199.3ZM126.3 120.5C125.2 121.9 124 121.4 122.8 120.5C119.6 118.4 116.4 116.3 113.1 114C110.6 116.9 108.1 119.5 105.9 122.1C105.5 122.5 105.5 123.8 105.7 124.4C107.5 128 109.2 131.4 111.1 134.9C111.8 136.1 112.4 137.4 111 138.2C109.6 139.2 108.5 138.2 107.8 137.1C105.5 132.8 103.1 128.4 101.1 123.8C99.1 119.1 97.6 114.2 96 109.4C95.7 108.3 95.4 106.9 95.4 105.8C95.4 102.6 97.6 100.8 100.5 102C104 103.4 107.2 105.6 110.6 107.2C111.4 107.5 112.4 107.8 113.1 107.5C114.6 107.3 115.3 107.8 115.7 109.3C115.9 110.1 116.4 111.1 117 111.5C119.5 113.4 122.3 115.2 124.9 117C126.2 118.1 127.3 119 126.3 120.5ZM148.9 101.1C148.1 102.2 146.9 101.7 146 100.8C144.8 99.5 143.5 98 142.1 96.6C141.2 99.4 141.1 102.3 139.7 104.1C137.6 106.7 135 104.4 132.8 103.4C132.7 103.5 132.5 103.6 132.2 103.7C132.9 106 133.5 108.4 134.2 110.7C134.5 111.6 135.2 112.5 135.2 113.4C135.2 114.2 134.9 115.4 134.2 115.7C133.6 116 132.1 115.6 131.8 115C129.6 110.8 127.9 106.3 128.3 101.3C128.4 99.1 130.1 98.2 132.3 98.7C133.2 98.9 134 99.4 134.7 99.7C135.5 100 136.1 100.5 137.1 101C137.2 99.7 137.2 98.8 137.3 97.8C137.4 96.5 137.4 95.2 137.9 94C138.6 91.9 140.9 91 142.6 92.2C144.9 94 147 96.1 149.1 98.3C149.5 98.9 149.4 100.5 148.9 101.1ZM208 51.3C208.7 51.3 209.3 52.2 210.6 53.1C209.3 54 208.5 54.9 207.7 54.8C207.1 54.8 206.2 53.7 206.2 53C206.2 52.4 207.3 51.4 208 51.3ZM152.1 78.3C152.8 77.6 153.3 76.7 154 76.6C154.7 76.6 155.4 77.5 156.6 78.3C155.5 79.2 154.7 80.2 154.2 80.1C153.4 80 152.8 79 152.1 78.3ZM165 92C164.2 93.1 163 92.6 162.2 91.7C161.3 91.1 160.8 90.5 159.9 89.5C159.6 91.7 159.5 93.4 159.2 95C159 96.3 158.4 97.5 156.9 97.2C155.4 97 155 95.8 155.2 94.4C155.4 92.3 155.6 90.3 156 88.2C156.3 86.5 157 84.7 158.9 84.6C160.2 84.6 161.5 85.6 162.8 86.4C163.8 87.1 164.6 88.2 165.1 89.2C165.4 89.9 165.4 91.3 165 92ZM182.3 85.2C179.9 86.5 177.2 87.5 175.9 88C170.1 87.9 168.1 86.3 167.3 82.2C166.5 77.6 168.3 73.3 171.8 72.1C172.6 71.9 174 72.2 174.6 72.9C175.5 73.9 174.6 74.8 173.6 75.6C171.1 77.4 170.3 79.4 171.4 82.3C171.7 83 172.7 83.9 173.4 83.9C174.8 84 176.2 83.6 177.6 83.2C178.6 82.9 179.6 82.1 180.6 82C181.4 81.9 182.7 82.3 183.1 83C183.5 83.3 182.9 85 182.3 85.2ZM200.2 76.8C199.6 77.1 198.2 76.7 197.8 76.1C196.7 74.7 195.8 72.9 194.8 71.3C194.5 70.7 193.8 70.4 193.4 70C193 70.6 192.3 71.1 192.2 71.8C191.8 73.2 191.8 74.9 191.4 76.4C191 78.2 191 80.5 188.6 80.9C186.3 81.2 185.3 79.1 184.7 77.3C183 72.5 181.6 67.7 180.1 62.9C179.7 61.7 179.9 60.4 181.2 60C182.6 59.6 183.5 60.4 184 61.8C184.9 64.8 185.8 67.8 186.8 70.8C186.9 71.6 187.1 72.2 187.5 73.1C188.2 71.3 188.6 69.9 189.3 68.5C191.1 65.4 194.5 64.8 196.8 67.4C198.6 69.5 199.9 72 201.2 74.4C201.4 75.1 200.7 76.5 200.2 76.8ZM215 74.6C214.2 74.7 213 73.9 212.6 73.2C211.7 71.8 211.4 70.2 210.6 68C209.7 69.9 209.1 71.2 208.5 72.5C207.9 73.7 207.1 74.6 205.6 73.9C204.2 73.2 204.3 72.1 204.8 71C205.6 69.1 206.2 67.1 207.3 65.5C208 64.4 209.5 63.3 210.6 63.3C211.7 63.3 213.1 64.6 213.7 65.6C214.8 67.5 215.2 69.7 216.1 71.8C216.7 73.2 216.4 74.4 215 74.6ZM240.5 72.9C239 73.9 238 72.7 237.3 71.5C236.7 70.4 236.2 69.6 235.6 68.6C234.6 69.8 234.1 70.7 233.3 71.6C231.9 73.2 230 73.7 227.9 73.2C225.7 72.5 224.4 71 224.2 68.9C223.8 65.2 224.1 61.9 226.8 59C230 55.5 234.4 56.2 236.3 60.6C237.6 63.6 239.2 66.5 240.7 69.5C241.4 70.7 242.1 71.9 240.5 72.9ZM264.5 66.2C263.8 66.3 262.7 65.6 262.1 65.1C261.7 64.7 261.5 63.7 261.2 62.5C260.4 63.7 260.1 65 259.3 65.6C258.4 66.5 257.1 67.7 256.1 67.6C255.1 67.5 254.2 66 253.3 65C253 64.7 253 64.2 252.6 63.3C251.4 65 250.4 66.4 249.3 68C249 68.4 248.6 69.2 248.2 69.4C247.4 69.7 246.3 69.8 245.7 69.5C245.3 69.3 244.9 67.7 245.3 67.3C247.1 64.6 248.8 62 251 59.6C252.5 57.8 254.4 58.6 256.6 61.7C257.4 60.5 257.9 59.2 258.7 58.2C260.4 56.1 263 56.3 264.1 58.8C264.8 60.4 265.4 62.1 265.6 63.8C265.8 64.7 265 66 264.5 66.2ZM283.5 69.7C281.7 70.3 279.9 70.5 278 70.9C272.5 70.8 270.3 67.8 271.8 62.4C272.6 59.4 276.4 57.1 280.6 57.2C284.1 57.2 286.2 59 287.1 62.4C287.9 65.6 286.5 68.6 283.5 69.7ZM303 75.1C302.4 74.9 301.9 74.9 301.3 75C299.8 74.9 298.2 74.8 296.7 74.6C293.8 74.2 291.9 71.5 292.2 68.6C292.8 64.3 296.5 60.2 300.8 59.7C302 59.6 303.4 60 304.7 60.7C305.3 61 305.7 62.4 305.4 62.9C305.2 63.5 304 64 303.3 64C299.7 63.7 297.6 65 296.5 68.5C296.1 69.8 296.4 70.7 297.8 70.8C299.6 70.9 301.3 71 303.1 71.1C304.5 71.1 306 71.4 306 73.2C305.8 74.8 304.4 75.1 303 75.1ZM322.3 79C322.2 79.7 320.9 80.1 320.1 80.6C319.7 79.8 318.7 79 318.7 78.3C318.7 76.3 319.1 74.3 319.5 71.8C318.2 72.7 317.3 73.4 316.4 73.9C315.3 74.6 314.2 74.8 313.3 73.7C312.4 72.5 313 71.5 314.1 70.7C315.4 69.7 316.9 68.6 318.3 67.8C320.9 66.4 323.5 67.6 323.5 70.6C323.4 73.3 322.8 76.2 322.3 79ZM324 60.9C323.2 60.8 322.7 59.8 322 59.1C322.7 58.4 323.1 57.5 323.8 57.4C324.5 57.3 325.2 58.3 326.4 59C325.4 59.9 324.6 61 324 60.9ZM359.4 76.5C356.3 78.7 352.6 80.1 349.2 81.8C347.9 82.5 346.4 82.8 344.6 83.6C346 84.6 346.8 85.4 347.8 85.9C350.9 87.7 354.1 89.2 357.2 90.9C358 91.3 359 91.7 359.4 92.2C359.8 92.8 360.3 94.1 360 94.7C359.7 95.3 358.3 95.7 357.6 95.5C356.3 95.2 355.2 94.4 354 93.7C350.8 91.9 347.5 90.2 344.3 88.4C343.3 87.8 342.5 87 341.9 85.9C340.5 83.9 340.8 81.6 342.9 80.2C344.6 79.2 346.4 78.5 348.3 77.7C350.3 76.9 352.4 76.3 354.4 75.2C355.7 74.6 356.7 73.6 357.8 72.7C356.4 70.2 354.6 69.6 352.3 69.9C350.8 70.1 349.1 70.8 347.6 70.9C346.8 70.9 345.7 70.3 345.2 69.7C345 69.4 345.5 67.9 346 67.6C349.6 65 356.5 65.5 359.8 68.5C362.2 71.3 362.5 74.3 359.4 76.5ZM385.7 100.3C382.6 102.6 379.3 103.5 377 103.6C369.4 103.8 363.8 97.2 365.7 91.3C366.3 89.4 367.8 87.6 369.3 86.3C371.2 84.7 373.5 83.5 375.8 82.5C376.6 82.2 377.8 82.4 378.8 82.6C379.7 82.7 380.5 83.2 381.3 83.4C385.6 84.1 387.9 86.7 389 90.8C390.1 94.8 388.8 97.7 385.7 100.3ZM399.2 117.6C400.9 119.2 402.6 120.5 404.3 122.1C405.3 123 406.2 124.1 405 125.4C403.9 126.5 402.8 126 401.8 125.1C398.3 121.9 394.6 118.7 391.1 115.5C390.4 114.8 389.8 114.1 389.4 113.3C387.6 110.1 389.1 107.5 392.6 106.8C395 106.4 397.3 105.6 399.6 104.9C401 104.5 402.5 103.7 402.5 101.9C402.5 100 401.4 98.8 399.7 97.9C398.9 97.5 397.8 97.2 397.2 96.6C396.6 96.2 396.2 94.8 396.4 94.4C396.7 93.7 397.9 93.1 398.6 93.3C402.3 94.2 405.1 96.4 406.2 100.2C407 102.9 406.3 105.4 403.9 106.9C401.4 108.5 398.4 109.4 395.5 110.5C394.6 110.8 393.6 110.9 392.7 111.2C392.7 111.2 392.6 111.4 392.5 111.6C394.8 113.6 397 115.6 399.2 117.6ZM430.4 133.5H427.4C428.4 135.3 429.4 136.6 429.8 138.1C430.6 140.6 431.2 143.1 431.3 145.6C431.5 148.9 429.5 150.7 426.2 150.9C423.2 151.1 420.5 150.2 418.5 148.2C415.5 145.3 412.9 142 410.1 138.8C409.8 138.4 409.7 137.8 409.4 137.4C409 136.3 409.2 135.2 410.4 134.6C411.7 133.9 412.4 134.8 413 135.7C415 138.5 417 141.3 419.3 143.6C420.6 144.9 422.6 145.9 424.6 146.5C426.7 147.3 427.4 146.5 427.5 144.3C427.5 141.3 426 138.8 424.5 136.4C423.9 135.4 423.2 134.4 423 133.4C422.2 130.7 423.8 128.9 426.5 129.2C428 129.3 429.7 129.3 431.6 129.4C431.2 127.2 430.1 125.8 428.5 124.9C427 123.9 425.2 123.2 423.5 122.4C422.3 121.8 421.3 121.1 422.1 119.5C422.8 118.2 423.9 118.2 425.1 118.7C428.8 120.3 432.5 121.8 434.6 125.7C437 130 435.2 133.2 430.4 133.5Z" fill="#8DE4FF"/>
<path fill-rule="evenodd" clip-rule="evenodd" d="M278.1 291.5C264.8 298.3 248.2 291.3 244.5 277.1C243.6 273.5 243.7 269.5 244.2 265.8C244.8 261.8 246.2 258 247 254.1C248 249.1 248.9 244.2 249.9 239.3C251 234 252.2 228.6 253.4 223.1C261.3 226 268.9 225.8 276.6 222.9C278.1 227.4 279.6 231.8 281 236.2C284 245.2 286.6 254.4 289.9 263.3C293.4 272.9 289 286 278.1 291.5Z" fill="#1F1F1F"/>
<path fill-rule="evenodd" clip-rule="evenodd" d="M300.5 256.1V262C297.4 261 295.1 259.2 292.9 256.7C295.6 256.4 297.8 256.3 300.5 256.1Z" fill="#FF7003"/>
<path fill-rule="evenodd" clip-rule="evenodd" d="M311.2 262.4C308.7 262.6 306.6 262.8 304.2 263.1V255.2C305.2 254.9 306.3 254.4 307.7 254C308.7 256.7 309.8 259.4 311.2 262.4Z" fill="#FF7003"/>
<path fill-rule="evenodd" clip-rule="evenodd" d="M318.9 257.1C317.4 258.3 316 259.6 314.4 260.9C313.2 257.9 312.1 255.3 311 252.5C312 252.1 313 251.5 314 250.9C315.6 252.9 317.1 254.8 318.9 257.1Z" fill="#FF7003"/>
<path fill-rule="evenodd" clip-rule="evenodd" d="M320.8 253.7C319.5 251.9 318.3 250.5 317.1 248.9C318.9 247 320.4 245.3 322.3 243.3C323 247 322.4 250.3 320.8 253.7Z" fill="#FF7003"/>
<path fill-rule="evenodd" clip-rule="evenodd" d="M320 239.1C319.2 241.7 317.5 243.6 315.3 245.5C313 240.7 311.7 236 311.9 230.6C315.5 231.9 318.3 234.3 320.2 237.4C320.3 237.8 320.1 238.6 320 239.1Z" fill="#FF7003"/>
<path fill-rule="evenodd" clip-rule="evenodd" d="M312.3 247.7C311.4 248.1 310.6 248.6 309.7 249.1C307.1 242.6 304.5 236.4 301.8 229.8C304 229.7 306 229.5 308.1 229.4C308 236.1 309.5 242 312.3 247.7Z" fill="#FF7003"/>
<path fill-rule="evenodd" clip-rule="evenodd" d="M306.1 250.7C305.1 251 304.3 251.4 303.2 251.7C301.4 245.3 298.7 239.8 294.1 234.5C295.4 233.4 296.7 232.4 298.3 231.2C300.9 237.7 303.5 243.7 306 249.8C306 250 306 250.3 306.1 250.7Z" fill="#FF7003"/>
<path fill-rule="evenodd" clip-rule="evenodd" d="M299.7 252.5C296.6 252.7 293.8 252.9 291 253.1C288.4 248.8 288.7 241.6 292 237.5C295.7 241.8 298.2 246.7 299.7 252.5Z" fill="#FF7003"/>
<path fill-rule="evenodd" clip-rule="evenodd" d="M239.3 259.5C235.9 263.3 230.4 265 224.2 264.1C229.7 261.5 233.3 257.9 236.2 252.6C237.6 254.4 238.8 255.7 239.8 257.3C240 257.7 239.7 259.1 239.3 259.5Z" fill="#03B9E1"/>
<path fill-rule="evenodd" clip-rule="evenodd" d="M232.9 251.1C229.7 256.8 225.4 260.6 219.2 261.6C218.6 261.7 218 261.7 217.7 261.4C215.9 259.8 214.2 258.2 212.6 256.7C216.2 255.4 219.6 254.2 222.9 252.9C223.7 252.6 224.6 252.1 225.1 251.5C227.5 248.8 230 249.9 232.9 251.1Z" fill="#EDDC00"/>
<path fill-rule="evenodd" clip-rule="evenodd" d="M224.2 247.6C220.8 250.7 216.8 252.2 212.2 252.4C211.1 252.4 210.5 252 210.4 251C210.2 249.7 210.1 248.4 209.8 246.9C215 246.7 219.4 244.9 223.3 242C223.9 243.4 224.3 244.7 224.6 246C224.8 246.5 224.6 247.2 224.2 247.6Z" fill="#03B9E1"/>
<path fill-rule="evenodd" clip-rule="evenodd" d="M242.9 254.2C238.4 251.2 236.4 246.8 236.5 241.6C236.5 239 237.2 236.5 237.5 233.5C244.2 237.9 245.8 244.6 242.9 254.2Z" fill="#EDDC00"/>
<path fill-rule="evenodd" clip-rule="evenodd" d="M233 247.1C233.1 247.2 232.8 247 232.2 247.1C228.7 247 227.2 244.5 227.1 241.5C227 238.2 227.3 234.7 227.4 231.4C227.5 230.1 228.5 229.6 229.6 230C231.1 230.3 232.8 230.9 234.3 231.3C233.9 234.1 233.1 236.6 232.9 239.2C232.8 241.8 233 244.4 233 247.1Z" fill="#03B9E1"/>
<path fill-rule="evenodd" clip-rule="evenodd" d="M223.9 230.4C223.6 232.5 223.5 234.5 223.1 236.6C223.1 237 223 237.5 222.7 237.7C219.3 240.8 215.4 242.8 210.7 243C211.2 237.1 218.6 230.2 223.9 230.4Z" fill="#EDDC00"/>
<path fill-rule="evenodd" clip-rule="evenodd" d="M125.1 117.3C122.5 115.5 119.7 113.7 117.2 111.8C116.5 111.4 116.1 110.4 115.9 109.6C115.5 108.2 114.8 107.6 113.3 107.8C112.5 108 111.5 107.8 110.8 107.5C107.4 105.8 104.2 103.7 100.7 102.3C97.8 101.1 95.6 102.9 95.6 106.1C95.6 107.2 95.8 108.6 96.2 109.7C97.7 114.5 99.3 119.4 101.3 124.1C103.3 128.7 105.7 133 108 137.4C108.7 138.5 109.8 139.5 111.2 138.5C112.6 137.6 112 136.4 111.3 135.2C109.4 131.7 107.7 128.3 105.9 124.7C105.7 124 105.7 122.8 106.1 122.4C108.3 119.7 110.7 117.2 113.3 114.3C116.6 116.5 119.8 118.6 123 120.8C124.2 121.7 125.4 122.2 126.5 120.8C127.3 119 126.2 118.1 125.1 117.3ZM103.1 119.2C101.7 114.7 100.5 110.6 99.1 106.6C99.4 106.4 99.7 106.2 99.9 105.9C103.1 107.7 106.4 109.6 109.9 111.6C107.6 114.2 105.6 116.4 103.1 119.2Z" fill="black"/>
<path fill-rule="evenodd" clip-rule="evenodd" d="M109.9 111.6C107.6 114.2 105.6 116.4 103.1 119.2C101.7 114.7 100.5 110.6 99.1 106.6C99.4 106.4 99.7 106.2 99.9 105.9C103.1 107.7 106.4 109.6 109.9 111.6Z" fill="#8DE4FF"/>
<path fill-rule="evenodd" clip-rule="evenodd" d="M430.4 133.5H427.4C428.4 135.3 429.4 136.6 429.8 138.1C430.6 140.6 431.2 143.1 431.3 145.6C431.5 148.9 429.5 150.7 426.2 150.9C423.2 151.1 420.5 150.2 418.5 148.2C415.5 145.3 412.9 142 410.1 138.8C409.8 138.4 409.7 137.8 409.4 137.4C409 136.3 409.2 135.2 410.4 134.6C411.7 133.9 412.4 134.8 413 135.7C415 138.5 417 141.3 419.3 143.6C420.6 144.9 422.6 145.9 424.6 146.5C426.7 147.3 427.4 146.5 427.5 144.3C427.5 141.3 426 138.8 424.5 136.4C423.9 135.4 423.2 134.4 423 133.4C422.2 130.7 423.8 128.9 426.5 129.2C428 129.3 429.7 129.3 431.6 129.4C431.2 127.2 430.1 125.8 428.5 124.9C427 123.9 425.2 123.2 423.5 122.4C422.3 121.8 421.3 121.1 422.1 119.5C422.8 118.2 423.9 118.2 425.1 118.7C428.8 120.3 432.5 121.8 434.6 125.7C437 130 435.2 133.2 430.4 133.5Z" fill="black"/>
<path fill-rule="evenodd" clip-rule="evenodd" d="M389 90.8C387.9 86.8 385.6 84.1 381.3 83.4C380.4 83.2 379.6 82.7 378.8 82.6C377.8 82.4 376.6 82.2 375.8 82.5C373.5 83.5 371.2 84.7 369.3 86.3C367.8 87.6 366.2 89.4 365.7 91.3C363.8 97.2 369.4 103.8 377 103.6C379.3 103.5 382.6 102.6 385.7 100.3C388.8 97.7 390.1 94.8 389 90.8ZM382.9 97.4C379.2 100.5 373.9 100.6 371 97.7C368.5 95.1 368.8 91.8 371.7 89.7C374.7 87.5 375.4 87.2 378.3 87.2C378.6 87.2 379.5 87.3 380.4 87.5C383.4 87.7 384.5 89.7 385.1 92.3C385.7 94.7 384.5 96 382.9 97.4Z" fill="black"/>
<path fill-rule="evenodd" clip-rule="evenodd" d="M382.9 97.4C379.2 100.5 373.9 100.6 371 97.7C368.5 95.1 368.8 91.8 371.7 89.7C374.7 87.5 375.4 87.2 378.3 87.2C378.6 87.2 379.5 87.3 380.4 87.5C383.4 87.7 384.5 89.7 385.1 92.3C385.7 94.7 384.5 96 382.9 97.4Z" fill="#8DE4FF"/>
<path fill-rule="evenodd" clip-rule="evenodd" d="M349.1 81.9C347.8 82.6 346.3 82.9 344.5 83.7C345.9 84.7 346.7 85.5 347.7 86C350.8 87.8 354 89.3 357.1 91C357.9 91.4 358.9 91.8 359.3 92.3C359.7 92.9 360.2 94.2 359.9 94.8C359.6 95.4 358.2 95.8 357.5 95.6C356.2 95.3 355.1 94.5 353.9 93.8C350.7 92 347.4 90.3 344.2 88.5C343.2 87.9 342.4 87.1 341.8 86C340.4 84 340.7 81.7 342.8 80.3C344.5 79.3 346.3 78.6 348.2 77.8C350.2 77 352.3 76.4 354.3 75.3C355.6 74.7 356.6 73.7 357.7 72.8C356.3 70.3 354.5 69.7 352.2 70C350.7 70.2 349 70.9 347.5 71C346.7 71 345.6 70.4 345.1 69.8C344.9 69.5 345.4 68 345.9 67.7C349.5 65.1 356.4 65.6 359.7 68.6C362.6 71.2 362.8 74.2 359.7 76.4C356.6 78.6 352.6 80.1 349.1 81.9Z" fill="black"/>
<path fill-rule="evenodd" clip-rule="evenodd" d="M405 125.4C403.9 126.5 402.8 126 401.8 125.1C398.3 121.9 394.6 118.7 391.1 115.5C390.4 114.8 389.8 114.1 389.4 113.3C387.6 110.1 389.1 107.5 392.6 106.8C395 106.4 397.3 105.6 399.6 104.9C401 104.5 402.5 103.7 402.5 101.9C402.5 100 401.4 98.8 399.7 97.9C398.9 97.5 397.8 97.2 397.2 96.6C396.6 96.2 396.2 94.8 396.4 94.4C396.7 93.7 397.9 93.1 398.6 93.3C402.3 94.2 405.1 96.4 406.2 100.2C407 102.9 406.3 105.4 403.9 106.9C401.4 108.5 398.4 109.4 395.5 110.5C394.6 110.8 393.6 110.9 392.7 111.2C392.7 111.2 392.6 111.4 392.5 111.6C394.7 113.7 396.9 115.7 399.1 117.7C400.8 119.3 402.5 120.6 404.2 122.2C405.3 123 406.2 124.1 405 125.4Z" fill="black"/>
<path fill-rule="evenodd" clip-rule="evenodd" d="M148.9 101.1C148.1 102.2 146.9 101.7 146 100.8C144.8 99.5 143.5 98 142.1 96.6C141.2 99.4 141.1 102.3 139.7 104.1C137.6 106.7 135 104.4 132.8 103.4C132.7 103.5 132.5 103.6 132.2 103.7C132.9 106 133.5 108.4 134.2 110.7C134.5 111.6 135.2 112.5 135.2 113.4C135.2 114.2 134.9 115.4 134.2 115.7C133.6 116 132.1 115.6 131.8 115C129.6 110.8 127.9 106.3 128.3 101.3C128.4 99.1 130.1 98.2 132.3 98.7C133.2 98.9 134 99.4 134.7 99.7C135.5 100 136.1 100.5 137.1 101C137.2 99.7 137.2 98.8 137.3 97.8C137.4 96.5 137.4 95.2 137.9 94C138.6 91.9 140.9 91 142.6 92.2C144.9 94 147 96.1 149.1 98.3C149.5 98.9 149.4 100.5 148.9 101.1Z" fill="black"/>
<path fill-rule="evenodd" clip-rule="evenodd" d="M200.2 76.8C199.6 77.1 198.2 76.7 197.8 76.1C196.7 74.7 195.8 72.9 194.8 71.3C194.5 70.7 193.8 70.4 193.4 70C193 70.6 192.3 71.1 192.2 71.8C191.8 73.2 191.8 74.9 191.4 76.4C191 78.2 191 80.5 188.6 80.9C186.3 81.2 185.3 79.1 184.7 77.3C183 72.5 181.6 67.7 180.1 62.9C179.7 61.7 179.9 60.4 181.2 60C182.6 59.6 183.5 60.4 184 61.8C184.9 64.8 185.8 67.8 186.8 70.8C186.9 71.6 187.1 72.2 187.5 73.1C188.2 71.3 188.6 69.9 189.3 68.5C191.1 65.4 194.5 64.8 196.8 67.4C198.6 69.5 199.9 72 201.2 74.4C201.4 75.1 200.7 76.5 200.2 76.8Z" fill="black"/>
<path fill-rule="evenodd" clip-rule="evenodd" d="M240.7 69.4C239.2 66.4 237.6 63.5 236.3 60.5C234.4 56.2 230 55.5 226.8 58.9C224 61.8 223.7 65.1 224.2 68.8C224.4 70.9 225.7 72.5 227.9 73.1C230 73.7 231.9 73.1 233.3 71.5C234.1 70.6 234.6 69.7 235.6 68.5C236.2 69.5 236.7 70.3 237.3 71.4C238 72.6 239 73.9 240.5 72.8C242.1 71.9 241.4 70.7 240.7 69.4ZM232.3 62.8C232 64.6 231.5 66.4 230.9 68.1C230.8 68.7 229.9 69 229 69.7C228.6 66.7 227.9 64.2 229.4 62C230 61.4 230.8 61.1 231.5 60.7C231.8 61.5 232.4 62.1 232.3 62.8Z" fill="black"/>
<path fill-rule="evenodd" clip-rule="evenodd" d="M232.3 62.8C232 64.6 231.5 66.4 230.9 68.1C230.8 68.7 229.9 69 229 69.7C228.6 66.7 227.9 64.2 229.4 62C230 61.4 230.8 61.1 231.5 60.7C231.8 61.5 232.4 62.1 232.3 62.8Z" fill="#8DE4FF"/>
<path fill-rule="evenodd" clip-rule="evenodd" d="M287.2 62.5C286.3 59 284.2 57.3 280.7 57.3C276.5 57.2 272.7 59.5 271.9 62.5C270.4 67.8 272.6 70.9 278.1 71C280 70.6 281.8 70.3 283.6 69.8C286.5 68.6 287.9 65.6 287.2 62.5ZM281.2 66.3C280.2 66.4 279.2 66.6 278.2 66.7C278 66.8 278 66.9 277.9 67C277 66.4 275.7 66.1 275.4 65.3C274.8 64 276.2 62.2 277.6 61.8C278.5 61.6 279.3 61.1 280.1 61C281.9 60.8 283.1 61.8 283.4 63.3C283.7 65.3 282.6 65.9 281.2 66.3Z" fill="black"/>
<path fill-rule="evenodd" clip-rule="evenodd" d="M281.2 66.3C280.2 66.4 279.2 66.6 278.2 66.7C278 66.8 278 66.9 277.9 67C277 66.4 275.7 66.1 275.4 65.3C274.8 64 276.2 62.2 277.6 61.8C278.5 61.6 279.3 61.1 280.1 61C281.9 60.8 283.1 61.8 283.4 63.3C283.7 65.3 282.6 65.9 281.2 66.3Z" fill="#8DE4FF"/>
<path fill-rule="evenodd" clip-rule="evenodd" d="M264.5 66.2C263.8 66.3 262.7 65.6 262.1 65.1C261.7 64.7 261.5 63.7 261.2 62.5C260.4 63.7 260.1 65 259.3 65.6C258.4 66.5 257.1 67.7 256.1 67.6C255.1 67.5 254.2 66 253.3 65C253 64.7 253 64.2 252.6 63.3C251.4 65 250.4 66.4 249.3 68C249 68.4 248.6 69.2 248.2 69.4C247.4 69.7 246.3 69.8 245.7 69.5C245.3 69.3 244.9 67.7 245.3 67.3C247.1 64.6 248.8 62 251 59.6C252.5 57.8 254.4 58.6 256.6 61.7C257.4 60.5 257.9 59.2 258.7 58.2C260.4 56.1 263 56.3 264.1 58.8C264.8 60.4 265.4 62.1 265.6 63.8C265.8 64.7 265 66 264.5 66.2Z" fill="black"/>
<path fill-rule="evenodd" clip-rule="evenodd" d="M305.9 73.2C305.8 74.9 304.5 75.1 303 75.1C302.4 74.9 301.9 74.9 301.3 75C299.8 74.9 298.2 74.8 296.7 74.6C293.8 74.2 291.9 71.5 292.2 68.6C292.8 64.3 296.5 60.2 300.8 59.7C302 59.6 303.4 60 304.7 60.7C305.3 61 305.7 62.4 305.4 62.9C305.2 63.5 304 64 303.3 64C299.7 63.7 297.6 65 296.5 68.5C296.1 69.8 296.4 70.7 297.8 70.8C299.6 70.9 301.3 71 303.1 71.1C304.4 71.1 305.9 71.4 305.9 73.2Z" fill="black"/>
<path fill-rule="evenodd" clip-rule="evenodd" d="M182.3 85.2C179.9 86.5 177.2 87.5 175.9 88C170.1 87.9 168.1 86.3 167.3 82.2C166.5 77.6 168.3 73.3 171.8 72.1C172.6 71.9 174 72.2 174.6 72.9C175.5 73.9 174.6 74.8 173.6 75.6C171.1 77.4 170.3 79.4 171.4 82.3C171.7 83 172.7 83.9 173.4 83.9C174.8 84 176.2 83.6 177.6 83.2C178.6 82.9 179.6 82.1 180.6 82C181.4 81.9 182.7 82.3 183.1 83C183.5 83.3 182.9 85 182.3 85.2Z" fill="black"/>
<path fill-rule="evenodd" clip-rule="evenodd" d="M215 74.6C214.2 74.7 213 73.9 212.6 73.2C211.7 71.8 211.4 70.2 210.6 68C209.7 69.9 209.1 71.2 208.5 72.5C207.9 73.7 207.1 74.6 205.6 73.9C204.2 73.2 204.3 72.1 204.8 71C205.6 69.1 206.2 67.1 207.3 65.5C208 64.4 209.5 63.3 210.6 63.3C211.7 63.3 213.1 64.6 213.7 65.6C214.8 67.5 215.2 69.7 216.1 71.8C216.7 73.2 216.4 74.4 215 74.6Z" fill="black"/>
<path fill-rule="evenodd" clip-rule="evenodd" d="M323.4 70.5C323.4 73.3 322.8 76.2 322.3 79C322.2 79.7 320.9 80.1 320.1 80.6C319.7 79.8 318.7 79 318.7 78.3C318.7 76.3 319.1 74.3 319.5 71.8C318.2 72.7 317.3 73.4 316.4 73.9C315.3 74.6 314.2 74.8 313.3 73.7C312.4 72.5 313 71.5 314.1 70.7C315.4 69.7 316.9 68.6 318.3 67.8C320.8 66.3 323.4 67.5 323.4 70.5Z" fill="black"/>
<path fill-rule="evenodd" clip-rule="evenodd" d="M165 92C164.2 93.1 163 92.6 162.2 91.7C161.3 91.1 160.8 90.5 159.9 89.5C159.6 91.7 159.5 93.4 159.2 95C159 96.3 158.4 97.5 156.9 97.2C155.4 97 155 95.8 155.2 94.4C155.4 92.3 155.6 90.3 156 88.2C156.3 86.5 157 84.7 158.9 84.6C160.2 84.6 161.5 85.6 162.8 86.4C163.8 87.1 164.6 88.2 165.1 89.2C165.4 89.9 165.4 91.3 165 92Z" fill="black"/>
<path fill-rule="evenodd" clip-rule="evenodd" d="M156.6 78.3C155.5 79.2 154.7 80.2 154.2 80.1C153.4 80 152.9 79 152.1 78.3C152.8 77.6 153.3 76.7 154 76.6C154.6 76.6 155.4 77.5 156.6 78.3Z" fill="black"/>
<path fill-rule="evenodd" clip-rule="evenodd" d="M210.6 53.1C209.3 54 208.5 54.9 207.7 54.8C207.1 54.8 206.2 53.7 206.2 53C206.2 52.4 207.3 51.4 208 51.3C208.7 51.3 209.3 52.2 210.6 53.1Z" fill="black"/>
<path fill-rule="evenodd" clip-rule="evenodd" d="M326.5 59C325.4 59.9 324.6 61 324.1 60.9C323.3 60.8 322.8 59.8 322.1 59.1C322.8 58.4 323.2 57.5 323.9 57.4C324.5 57.3 325.2 58.3 326.5 59Z" fill="black"/>
<path fill-rule="evenodd" clip-rule="evenodd" d="M220 108.6C216.4 106.9 211.7 109.2 211.2 113.3C210.2 119.9 209.3 126.6 209.2 133.1C208.9 144.6 209.1 156.1 209.1 167.4C209.2 167.4 209.3 167.4 209.5 167.5C209.5 174.9 209.3 182.2 209.5 189.6C209.7 196.5 210.2 203.4 210.8 210.3C211.2 214.4 212.9 218.1 217 220C219.5 221.2 221.6 220 221.7 217.1C221.9 212 222.3 207 222.4 201.9C222.7 180.7 223 159.6 223.3 138.4C223.4 130.9 223.6 123.5 223.6 116.1C223.6 113.2 223.2 110.1 220 108.6ZM219.2 181.7C219.1 191.7 218.8 201.8 218.4 211.9C218.3 213.3 218.1 214.8 218 216.6C215.7 214.7 214.6 212.5 214.4 210C213.8 204.7 213.3 199.4 213.2 194.1C212.9 179.6 212.4 165.2 212.5 150.7C212.6 139.8 213.4 129 213.9 118C214 116.6 214.3 115.2 214.7 113.8C215 112.1 216.4 111.7 217.8 111.7C219.2 111.7 219.5 112.9 219.6 114C219.8 115.8 219.8 117.6 219.8 119.3C219.6 140.1 219.4 161 219.2 181.7Z" fill="black"/>
<path fill-rule="evenodd" clip-rule="evenodd" d="M219.8 119.4C219.6 140.1 219.5 161 219.2 181.7C219.1 191.7 218.8 201.8 218.4 211.9C218.3 213.3 218.1 214.8 218 216.6C215.7 214.7 214.6 212.5 214.4 210C213.8 204.7 213.3 199.4 213.2 194.1C212.9 179.6 212.4 165.2 212.5 150.7C212.6 139.8 213.4 129 213.9 118C214 116.6 214.3 115.2 214.7 113.8C215 112.1 216.4 111.7 217.8 111.7C219.2 111.7 219.5 112.9 219.6 114C219.8 115.9 219.8 117.6 219.8 119.4Z" fill="#D50004"/>
<path fill-rule="evenodd" clip-rule="evenodd" d="M362.8 139.9C362.5 135.6 361 131.5 358.4 128C357.1 126.3 355.4 125.1 353.1 125.5C350.9 125.9 350.2 128 349.9 129.8C349 134.4 348 138.9 347.4 143.6C345 159.4 342.7 175.3 340.2 191.2C338.9 199.8 337.6 208.4 336.2 216.9C335.6 220.1 335.3 223.5 337.1 226.6C339.3 230.4 345 232.3 348 227.6C348.6 226.7 349.2 225.8 349.7 224.8C354.1 216 357.1 206.6 359.5 197.2C362.8 184.3 363.4 171.1 363.8 157.9C363.4 151.9 363.1 145.7 362.8 139.9ZM357.4 189.3C355.4 200.7 351.8 211.5 347.1 222C346.5 223.3 345.8 224.5 345 225.6C343.9 227.3 342.2 227.5 341.1 225.9C340.2 224.6 339.3 222.7 339.6 221.1C341.8 204.8 344.1 188.4 346.5 172.2C348.5 158.8 350.7 145.5 352.9 132.1C353.1 131.1 353.5 130.1 353.9 128.3C355.1 129.7 356 130.6 356.5 131.6C358.5 134.9 359.1 138.7 359.4 142.5C360.4 158.1 360.1 173.8 357.4 189.3Z" fill="black"/>
<path fill-rule="evenodd" clip-rule="evenodd" d="M357.4 189.3C355.4 200.7 351.8 211.5 347.1 222C346.5 223.3 345.8 224.5 345 225.6C343.9 227.3 342.2 227.5 341.1 225.9C340.2 224.6 339.3 222.7 339.6 221.1C341.8 204.8 344.1 188.4 346.5 172.2C348.5 158.8 350.7 145.5 352.9 132.1C353.1 131.1 353.5 130.1 353.9 128.3C355.1 129.7 356 130.6 356.5 131.6C358.5 134.9 359.1 138.7 359.4 142.5C360.4 158.1 360.1 173.8 357.4 189.3Z" fill="#D50004"/>
<path fill-rule="evenodd" clip-rule="evenodd" d="M205.7 195.9C206.1 201.7 206.4 207.5 206.5 213.3C206.5 214.6 206.2 216.2 205.6 217.4C204.5 220.2 202.2 220.7 199.9 218.7C196.2 215.5 194 211.3 192.7 206.7C187.6 187.9 186.5 168.8 188.7 149.4C190 137.7 192.3 126.2 195.5 115C195.8 113.9 196.3 112.5 197.6 113.2C198.2 113.4 198.7 115.1 198.5 115.9C197 122.7 195 129.5 193.8 136.3C190.8 153.6 189.5 171 192.3 188.3C193.3 194.8 194.8 201.1 196.4 207.5C197.3 210.5 199.2 213.3 202.1 216C202.4 214.6 203 213.4 202.9 212.3C202.8 206.3 202.3 200.4 202.2 194.4C202.1 189.1 202.1 183.8 202 178.5C201.9 170.3 201.6 162 201.9 153.8C202.1 145.3 203.1 136.9 203.6 128.4C203.8 124.5 203.7 120.6 203.8 116.8C203.8 115.8 203.7 114.8 204.1 114C204.4 113.3 205.4 112.9 206.1 112.3C206.7 113.1 207.6 113.9 207.6 114.5C207.3 122.1 206.8 129.7 206.4 137.1C205.2 156.6 204.3 176.3 205.7 195.9Z" fill="black"/>
<path fill-rule="evenodd" clip-rule="evenodd" d="M231.8 137C235.3 134.4 237.3 130.6 238.7 126.6C240.1 122.4 237.9 114.3 231.9 113.1C229.6 112.7 228.3 113.2 228 115.6C227.1 124.6 225.8 133.5 225.6 142.5C225.3 157.2 225.6 171.9 225.8 186.6C225.9 196.2 226.4 205.8 226.7 215.4C226.7 216.7 227 218 228.6 218C230 218 230.3 216.7 230.3 215.4C230.3 213.6 230.2 211.8 230.2 210.1C229.8 192 229.2 174 228.8 155.8V148.6H229.5C229.7 149.4 229.9 150.3 230.1 151.2C231.1 157.8 232 164.2 233 170.8C233.2 172 233.6 173.4 235.2 173.1C236.7 172.9 236.7 171.5 236.6 170.3C236.6 170.1 236.5 169.7 236.5 169.5C234.7 159.6 233.1 149.7 231.4 139.7C231.1 138.8 230.6 137.9 231.8 137ZM230.3 133.6C230.1 133.6 229.9 133.5 229.6 133.5C230.2 127.9 230.7 122.5 231.3 116.7C234.1 118 235 120.3 235.3 122.6C235.9 127.1 233 130.3 230.3 133.6Z" fill="black"/>
<path fill-rule="evenodd" clip-rule="evenodd" d="M230.3 133.6C230.1 133.6 229.9 133.5 229.6 133.5C230.2 127.9 230.7 122.5 231.3 116.7C234.1 118 235 120.3 235.3 122.6C235.9 127.1 233 130.3 230.3 133.6Z" fill="#D50004"/>
<path fill-rule="evenodd" clip-rule="evenodd" d="M325.1 111.2C324.5 111.9 324.1 112.9 323.6 113C320.8 113.6 318.1 113.9 315.3 114.2C312.2 114.5 312.1 114.5 311.8 117.5C310.3 131.5 308.7 145.6 307.2 159.7C307.1 160.9 307.5 161.3 308.6 161.4C309.6 161.4 310.6 161.3 311.5 161.6C312.3 161.9 312.9 162.7 313.6 163.3C312.8 163.9 312.2 164.7 311.4 164.9C310.4 165.1 309.2 164.8 308.2 164.9C307.6 165 306.8 165.7 306.8 166.2C305.9 177.9 305 189.7 304.3 201.4C304.1 204.6 304.1 207.9 303.7 211C303.6 212.6 303.9 213.2 305.5 213.5C307.3 213.8 308.9 214.3 310.7 214.8C311.8 215.1 312.9 215.6 312.5 217C312.2 218.3 311.1 218.4 309.9 218.1C307.3 217.4 304.6 216.8 302 216.2C300.6 215.9 300.1 215.1 300.1 213.6C300.2 211.4 300.3 209.1 300.4 206.8C300.1 206.9 300.1 206.9 300 206.9C301.1 192.7 302 178.7 303.3 164.6C304.3 153.3 305.7 142 306.9 130.7C307.6 125.1 308.1 119.4 308.7 113.9C308.8 112.2 309.5 111.4 311.1 111.2C314.7 110.8 318.4 110.2 322 109.6C322.4 109.6 322.9 109.4 323.2 109.6C323.8 110.2 324.5 110.7 325.1 111.2Z" fill="black"/>
<path fill-rule="evenodd" clip-rule="evenodd" d="M332.4 225.4C331.6 225.6 330.6 225.7 330 225.5C326.8 224.3 323.7 222.9 320.5 221.7C319.7 221.4 319 221.1 318.1 221.1C316 221.2 315.6 220 315.6 218.2V212.3C316.7 203.2 317.5 193.9 318.8 184.7C322 161.9 325.3 139 328.6 116.2C328.8 114.4 329 112.6 329.4 111C329.6 109.8 330.1 108.7 331.6 108.9C333 109.1 333.1 110.3 332.9 111.5C331.9 118.3 330.9 125 329.9 131.7C327.8 146.5 325.5 161.2 323.5 175.9C322.1 186.5 320.9 197.1 319.6 207.8C319.3 210.5 319.5 213.3 319.3 215.9C319.2 217.1 319.6 217.7 320.8 218.1C324.3 219.4 327.7 220.9 331.1 222.3C331.9 222.6 332.4 223.4 332.9 224.1C333.1 224.3 332.7 225.3 332.4 225.4Z" fill="black"/>
<path fill-rule="evenodd" clip-rule="evenodd" d="M192 117.3C192 117.4 191.7 117.6 191.6 117.6C181.5 121.8 177.2 130.6 174.1 140.2C170.4 152.1 170 164.3 171.7 176.5C173.1 187.4 176.1 198 181.8 207.5C184.3 211.6 187.7 215.2 190.7 219.1C191 219.5 191.7 219.9 191.7 220.3C191.8 221 191.8 221.9 191.4 222.3C191.1 222.6 190.1 222.7 189.5 222.5C188.8 222.3 188.3 221.7 187.7 221.2C180.5 214.4 175.9 205.9 172.7 196.7C166.3 178.2 164.9 159.4 170.2 140.3C172.3 132.6 175.5 125.5 181.3 119.9C183.5 117.8 186.3 116.3 188.8 114.7C189.4 114.6 190 114.5 191 114.1C191.4 114.4 192.2 114.9 192.4 115.4C192.6 116 192.3 116.7 192 117.3Z" fill="black"/>
<path fill-rule="evenodd" clip-rule="evenodd" d="M262.3 129.9C261.5 137.6 260.9 145.2 260.1 152.9C260 153.9 259.2 155.4 258.6 155.5C257.1 155.8 256.8 154.4 256.4 153.2C254.6 147.5 252.9 141.8 251.1 136.1C251.1 136.2 251 136.2 250.9 136.2C250.3 142.8 249.7 149.5 249.1 156.1C249.1 156.8 249.1 157.5 248.8 158.1C248.4 158.9 247.5 159.4 246.9 160C246.5 159.2 245.5 158.4 245.5 157.7C245.5 155.4 245.7 152.9 245.9 150.6C246.8 142 247.7 133.4 248.5 124.9C248.6 124.1 248.5 123.5 248.5 122.7C248.5 121.3 249.3 120.2 250.7 120.4C252.1 120.4 252.1 121.5 252.5 122.7C253.9 129.3 255.4 135.9 256.8 142.3C256.8 142.4 257 142.4 257.2 142.6C257.8 138.1 258.3 133.9 258.7 129.6C258.8 128.3 259.1 126.9 260.7 127C262.5 127 262.4 128.6 262.3 129.9Z" fill="black"/>
<path fill-rule="evenodd" clip-rule="evenodd" d="M303.8 115.4C302.5 129.9 301 144.4 299.8 159C299.5 162.7 299.6 166.5 299.5 170.3C299.5 171.5 299.4 172.8 297.7 172.8C296.3 172.8 296.2 171.5 296.2 170.3V161.9C296.1 161.8 296 161.8 296 161.8C297.1 150.3 298.1 138.8 299.2 127.4C299.5 123.7 300 119.9 300.3 116.3C300.3 115.9 300.3 115.5 300.4 115.1C300.6 113.9 300.6 112.1 302.4 112.3C304.2 112.3 303.9 114 303.8 115.4Z" fill="black"/>
<path fill-rule="evenodd" clip-rule="evenodd" d="M293 118.9C287.9 126 286.5 134.2 286.2 142.6C286.1 148.1 287.3 153.2 290.2 158C291.1 159.4 292 160.9 292.5 162.5C292.7 163.2 292.2 164.2 291.9 165C291.1 164.7 289.9 164.7 289.5 164.1C285.6 157.5 282.1 150.7 282.7 142.6C283.1 133.6 284.6 124.8 290.1 117.2C291 116.1 291.5 114.1 293.4 115.3C295.1 116.3 293.9 117.7 293 118.9Z" fill="black"/>
<path fill-rule="evenodd" clip-rule="evenodd" d="M245.8 119.4C245.7 121.5 245.1 123.7 245 125.9C244 135.6 243.1 145.3 242.2 155C241.9 158 241.8 160.9 241.4 163.9C241.3 165.2 241.2 166.7 239.3 166.5C237.6 166.3 237.8 164.8 237.9 163.6V162.8C237.9 162.9 237.8 162.9 237.6 162.8C239.1 148.6 240.6 134.4 242.1 120.2C242.1 119.6 242.1 119 242.4 118.6C243 118 243.8 117.3 244.5 117.5C245.1 117.6 245.9 118.9 245.8 119.4Z" fill="black"/>
<path fill-rule="evenodd" clip-rule="evenodd" d="M283.1 158.5C282.3 158.8 281.3 159.5 280.7 159.3C278.8 158.9 277.1 157.9 275.2 157.3C273.5 156.7 272.8 155.7 272.9 154C273.2 145.3 273.5 136.6 273.8 127.9C273.8 126.5 273.8 124.4 275.9 124.7C278 124.8 277.4 126.7 277.1 128C277 135.9 276.8 143.9 276.5 151.8C276.5 153.4 276.9 154.1 278.4 154.6C279.7 155 281.2 155.5 282.3 156.3C282.8 156.6 282.9 157.8 283.1 158.5Z" fill="black"/>
<path fill-rule="evenodd" clip-rule="evenodd" d="M269 153.4C269.8 153.7 270.4 154.4 271.1 155C270.5 155.7 270.1 156.3 269.4 156.8C269.1 157.1 268.3 157 267.9 157C263.2 157.1 262.7 156.9 263.1 152.1C263.4 146.5 263.9 141 264.2 135.4C264.3 134.3 264.3 133.2 264.1 132.2C263.7 130.5 264.3 129.6 265.9 129.4C267.3 129.3 268.8 129.1 270.2 129.4C271 129.5 271.5 130.7 272.1 131.4C271.4 131.8 270.7 132.5 269.9 132.8C269.2 133.1 268.6 133 267.8 133C267.7 135.3 267.6 137.5 267.6 139.7C267.6 140 268 140.6 268.5 140.8C269.9 141.9 269.9 142.9 268.5 144C267.9 144.4 267.4 145.1 267.3 145.8C267 148.3 266.9 150.6 266.6 153.4C267.4 153.4 268.3 153.2 269 153.4Z" fill="black"/>
<path fill-rule="evenodd" clip-rule="evenodd" d="M275.4 483.2C273.1 476.5 270.8 469.8 268.6 463.1C267.4 459.5 266.2 455.9 265.1 452.6C267.7 450.9 270.2 449.7 272 448C275.4 444.8 275.1 439.4 271.4 436.3C268.5 433.7 265.1 433 261.4 433.1C259 433.2 258.5 433.5 258.5 436C258.6 451.8 258.6 467.5 258.6 483.4C258.6 484 258.4 484.7 258.7 485.2C259 485.9 259.8 486.6 260.5 486.6C261.2 486.6 261.8 485.7 262.3 485C262.4 484.7 262.3 484 262.3 483.6V459.6C262.3 459 262.4 458.4 262.4 457.7C263.1 458.1 263.3 458.7 263.5 459.4C266.4 467.6 269.1 475.9 272 484.3C272.4 485.5 273 486.6 274.5 486.2C276 485.7 275.8 484.4 275.4 483.2ZM262.5 448.6V436.8C266.7 436.5 270.5 438.9 270.8 442.1C270.9 445.5 266.9 448.6 262.5 448.6Z" fill="black"/>
<path fill-rule="evenodd" clip-rule="evenodd" d="M270.8 442.2C270.9 445.5 266.9 448.7 262.5 448.7V436.9C266.7 436.5 270.5 438.9 270.8 442.2Z" fill="#098407"/>
<path fill-rule="evenodd" clip-rule="evenodd" d="M315.7 434.9V452.6C317.7 452.4 319.4 452.2 321.2 451.9C322.5 451.8 323.8 451.8 324.1 453.3C324.3 454.9 323 455.1 321.8 455.3C320.3 455.5 318.7 455.7 317.2 455.9C316.2 456 315.8 456.2 315.8 457.3V476.2C318.8 475.5 321.6 474.8 324.4 474.1C325.2 474 325.8 473.4 326.6 473.7C327.6 473.8 328.9 474.1 329.2 474.9C329.9 476.2 328.6 476.8 327.4 477C323.9 477.9 320.2 478.8 316.7 479.7C312 480.9 312 481 312.1 476.1C312.1 469.1 312 461.9 312 454.9V434.1C312 432.2 312.9 431.3 314.8 431.4C319.3 431.7 323.8 432 328.2 432.4C329 432.5 330.4 433.5 330.4 434.2C330.5 435.6 329.1 435.9 327.9 435.8C323.7 435.5 319.9 435.3 315.7 434.9Z" fill="black"/>
<path fill-rule="evenodd" clip-rule="evenodd" d="M196.1 449.1C194.6 445 191.7 441.7 187.2 440.5C184 439.7 182.9 440.6 182.9 443.8C182.9 454.2 183 464.5 183 475V476C183 477.8 183.8 478.6 185.5 478.5C188.1 478.5 190.2 477.4 192.1 475.7C196.7 471.5 198 465.9 198.5 458.3C198 456.2 197.5 452.5 196.1 449.1ZM186.9 474.8V444.5C190.8 445.1 194.2 450.7 194.8 458C195.5 465.3 192 473 186.9 474.8Z" fill="black"/>
<path fill-rule="evenodd" clip-rule="evenodd" d="M186.9 474.8V444.5C190.8 445.1 194.2 450.7 194.8 458C195.5 465.3 192 473 186.9 474.8Z" fill="#098407"/>
<path fill-rule="evenodd" clip-rule="evenodd" d="M308.8 433.9C308.8 435.9 307 435.6 305.7 435.6H294.8V482.7C294.8 483.9 294.5 484.9 293 485C291.5 485 291 484 291 482.7C291 477.4 290.9 471.9 290.9 466.5V437.7C290.9 436 290.5 435.5 288.7 435.5C285.2 435.6 281.7 435.5 278 435.5C277.3 435.5 276.6 435.5 276 435.3C275.6 435.1 275 434.3 274.9 433.9C274.9 433.5 275.5 432.8 275.9 432.6C276.6 432.3 277.3 432.3 278.1 432.3C287.1 432.3 296 432.3 305.1 432.2H305.5C307 432.2 308.7 432 308.8 433.9Z" fill="black"/>
<path fill-rule="evenodd" clip-rule="evenodd" d="M241.2 438.9C241.3 443.6 241.3 448.1 241.2 452.8C241.2 454.1 241.8 454.6 243 454.6C244 454.5 245.1 454.4 246 454.7C246.7 454.9 247.1 455.8 247.8 456.4C247.2 457 246.7 457.8 246 458C244.7 458.2 243.2 458 241.6 458C241.5 458.8 241.5 459.4 241.5 460V480.1C241.5 481.8 241.9 482.4 243.7 482.4C245.8 482.5 247.8 482.5 249.8 483C250.7 483.1 251.3 484.1 252.1 484.8C251.2 485.2 250.4 486.2 249.6 486.2C246.4 486.2 243.2 485.9 240 485.5C238.5 485.4 237.8 484.5 237.8 482.9V437.9C237.8 434.3 236.8 433.6 242.1 433.3C245 433.2 247.8 433 250.7 432.9C251.9 432.9 253.2 432.8 253.3 434.5C253.4 436.1 252.2 436.3 250.9 436.4C248.4 436.5 245.8 436.7 243.3 436.8C241.7 436.8 241.2 437.5 241.2 438.9Z" fill="black"/>
<path fill-rule="evenodd" clip-rule="evenodd" d="M228.8 437C226.4 435.4 223.6 434.8 220.7 434.8C218.1 434.8 217.6 435.1 217.6 437.8V460.1C217.6 467.8 217.6 475.4 217.7 482.9C217.7 484.2 218.1 485.2 219.6 485.2C220.9 485.2 221.4 484.3 221.4 483V482.6C221.4 473.8 221.4 464.9 221.3 456.1C221.3 454.5 221.7 454 223.3 453.5C225.3 452.9 227.3 452.1 229 450.9C234.2 447.4 234.1 440.5 228.8 437ZM221.4 450.1V438.6C224.8 437.8 228.8 440.4 229.2 443.4C229.7 446.5 225.9 449.7 221.4 450.1Z" fill="black"/>
<path fill-rule="evenodd" clip-rule="evenodd" d="M221.4 450.1V438.6C224.8 437.8 228.8 440.4 229.2 443.4C229.7 446.5 225.9 449.7 221.4 450.1Z" fill="#098407"/>
<path fill-rule="evenodd" clip-rule="evenodd" d="M346.4 466.6C346.4 466.5 346.3 466.4 346.3 466.3C344.5 461.3 343 456.3 341.2 451.4C340.6 450 340.9 449.2 342.2 448.2C346.7 445 346.1 439.2 340.9 437.1C339.6 436.5 338 436.3 336.6 436.1C334.8 435.8 334.1 436.5 334.1 438.3V471.8C334.1 473 334.4 474 335.9 474C337.3 474 337.8 473 337.8 471.8V454C337.9 454 338.1 453.9 338.2 453.9C338.8 455.3 339.3 456.8 339.7 458.2C340.8 461.4 341.9 464.6 343 467.7C343.3 468.9 344 470.2 345.5 469.6C347 469.1 346.9 467.8 346.4 466.6ZM337.8 446.2V439.8C340 440 341.4 441.1 341.5 442.6C341.8 444.3 340.4 445.5 337.8 446.2Z" fill="black"/>
<path fill-rule="evenodd" clip-rule="evenodd" d="M337.8 446.2V439.8C340 440 341.4 441.1 341.5 442.6C341.8 444.3 340.4 445.5 337.8 446.2Z" fill="#098407"/>
<path fill-rule="evenodd" clip-rule="evenodd" d="M360.4 452.4C359.8 451.1 360.1 450.4 361.3 449.5C365.2 446.7 365 441.8 361 439.4C359.5 438.5 357.6 438.1 355.8 437.8C353.5 437.6 352.5 438.7 352.5 440.9V465.5C352.5 466.7 352.9 468.1 354.4 467.7C355.2 467.6 355.9 466.4 356.2 465.5C356.5 464.4 356.3 463 356.3 461.8V453.1C356.5 453.1 356.6 453.1 356.9 453.2C357.5 454.8 358 456.2 358.6 457.8C359.2 459.4 359.7 460.9 360.1 462.5C360.4 463.7 361.3 464.5 362.6 464.1C363.9 463.5 363.9 462.4 363.5 461.3C362.5 458.3 361.5 455.3 360.4 452.4ZM356.4 447.8V441.4C358.8 441.6 360.3 442.8 360.3 444.4C360.3 446.2 358.7 447.5 356.4 447.8Z" fill="black"/>
<path fill-rule="evenodd" clip-rule="evenodd" d="M360.3 444.5C360.3 446.2 358.8 447.5 356.4 447.8V441.4C358.8 441.7 360.3 442.9 360.3 444.5Z" fill="#098407"/>
<path fill-rule="evenodd" clip-rule="evenodd" d="M179.9 445.1C179.1 445.8 178.5 446.8 177.6 446.9C175.7 447.2 173.6 447.3 171.8 447.3C170.5 447.3 169.9 447.7 170 449.1C170.1 451.1 170.1 453 170 455C170 456.2 170.6 456.7 171.7 456.8C173.2 456.9 174.9 457 176.3 457.6C177 457.8 177.4 458.9 177.8 459.6C177 460 176.4 460.8 175.6 460.8C174.3 460.9 173.1 460.6 171.7 460.4C170.5 460.2 169.9 460.5 169.9 461.8C169.9 464.4 169.9 466.8 170 469.4C170 470 170.8 470.8 171.3 471C173 471.7 174.7 471.9 176.4 472.6C177.2 472.9 178.3 474 178.3 474.7C178.2 476.1 176.9 476.1 175.5 475.8C173.3 475.1 171.1 474.5 168.8 473.9C167.1 473.5 166.4 472.5 166.4 470.7V447C166.4 445.4 167.1 444.4 168.7 444.2C170.4 443.9 172.1 443.8 173.9 443.6C175 443.5 176.3 443.2 177.3 443.5C178.3 443.6 179 444.5 179.9 445.1Z" fill="black"/>
<path fill-rule="evenodd" clip-rule="evenodd" d="M203.3 482.8C201.1 482.8 201.6 480.7 201.6 479.2V459.4C201.5 459.4 201.5 459.4 201.5 459.4V439.8C201.5 439.1 201.4 438.4 201.6 437.8C201.9 437.1 202.7 436.4 203.3 436.4C203.9 436.4 204.6 437.2 205 437.8C205.2 438.1 205.1 438.8 205.1 439.4C205.1 452.7 205.2 465.9 205.2 479.3C205.1 480.7 205.6 482.8 203.3 482.8Z" fill="black"/>
<path fill-rule="evenodd" clip-rule="evenodd" d="M382.9 450.3C380.6 446.2 378.2 442.3 375.6 438.3C375.2 437.7 374.1 437.3 373.5 437.4C372.9 437.5 372.2 438.3 372 439C371.6 440.4 371.3 442 371 443.6C370.1 448.1 369.3 452.5 368.4 457.3C368.7 457.6 369.3 458.5 369.7 458.6C370.1 458.7 371.1 458 371.4 457.6C371.8 456.3 372.2 454.9 372.3 453.6C372.5 450.3 375.4 449.9 377.5 449.1C379.3 448.4 379.2 450.7 380 451.4C380.2 451.6 380.3 452.1 380.6 452.1C381.3 452.2 382.3 452.7 382.6 452.3C382.9 451.9 383.3 450.8 382.9 450.3ZM373.8 447.3C374.1 445.6 374.4 444.5 374.5 443.3C374.6 443.3 374.8 443.2 374.9 443.2C375.5 444.1 376 444.9 376.7 446C375.7 446.4 375 446.7 373.8 447.3Z" fill="black"/>
<path fill-rule="evenodd" clip-rule="evenodd" d="M376.7 446C375.7 446.4 375 446.8 373.8 447.3C374.1 445.6 374.4 444.5 374.5 443.3C374.6 443.3 374.8 443.2 374.9 443.2C375.4 444.1 376 444.8 376.7 446Z" fill="#098407"/>
<path fill-rule="evenodd" clip-rule="evenodd" d="M146.9 443.3C146.2 443.1 145.6 443 145.2 443C143.3 442.9 142 443.1 142 444.9C142 449.9 142 454.8 142.1 459.8C142.1 460.5 143.1 461 143.6 461.7C144 461 144.9 460.5 145 459.7C145.2 458.5 145.1 457 145 455.7C144.8 453.9 145.2 452.9 147.2 452.4C149.5 451.8 150.8 449.7 150.7 447.7C150.8 445.6 149.1 443.8 146.9 443.3ZM146 450C145.8 449.9 145.6 449.8 145.3 449.7V446.1C145.5 446 145.6 445.8 145.9 445.7C146.6 446.5 147.7 447.1 147.7 447.8C147.7 448.5 146.7 449.2 146 450Z" fill="black"/>
<path fill-rule="evenodd" clip-rule="evenodd" d="M147.7 447.7C147.7 448.5 146.7 449.1 146 449.9C145.8 449.8 145.6 449.7 145.3 449.6V446C145.5 445.9 145.6 445.7 145.9 445.6C146.6 446.4 147.7 447.1 147.7 447.7Z" fill="#098407"/>
<path fill-rule="evenodd" clip-rule="evenodd" d="M159.6 455.5V464.6C159.6 466 159.3 467.4 157.6 467.4C155.9 467.4 155.8 466 155.8 464.6C155.8 458.4 155.7 452.2 155.7 446C155.7 444.7 155.8 443.2 157.6 443.2C159.1 443.2 159.4 444.6 159.4 445.9C159.6 449.3 159.6 452.3 159.6 455.5Z" fill="black"/>
<path fill-rule="evenodd" clip-rule="evenodd" d="M264.9 208.4C259.8 208.4 256 207 252.8 203.9C251.8 203 250.9 202 252 200.8C253.1 199.5 254.2 200.5 255.2 201.2C261.7 206.8 270.3 205.7 275.2 198.7C276 197.7 276.7 196.5 278.2 197.4C279.6 198.4 279 199.6 278.2 200.7C274.8 205.7 270.2 208.1 264.9 208.4Z" fill="black"/>
<path fill-rule="evenodd" clip-rule="evenodd" d="M270.8 186.7C270 185.6 269.3 184.8 269.4 184.2C269.5 183.5 270.4 183.1 270.9 182.5C271.5 183.1 272.3 183.6 272.4 184.3C272.4 185 271.5 185.6 270.8 186.7Z" fill="black"/>
<path fill-rule="evenodd" clip-rule="evenodd" d="M256.4 182.9C257.2 184 257.9 184.8 257.8 185.4C257.7 186.1 256.7 186.8 256.1 186.8C255.5 186.8 254.7 185.8 254.6 185.2C254.8 184.6 255.6 184.1 256.4 182.9Z" fill="black"/>
</svg>
